<ttFont>
<head>
    <!-- Most of this table will be recalculated by the compiler -->
    <tableVersion value="1.0"/>
    <fontRevision value="3.09999"/>
    <checkSumAdjustment value="0x17ad6a44"/>
    <magicNumber value="0x5f0f3cf5"/>
    <flags value="00000000 00000011"/>
    <unitsPerEm value="1000"/>
    <created value="Thu Oct  5 21:41:55 2017"/>
    <modified value="Thu Oct  5 21:41:55 2017"/>
    <xMin value="-517"/>
    <yMin value="-564"/>
    <xMax value="2652"/>
    <yMax value="1053"/>
    <macStyle value="00000000 00000010"/>
    <lowestRecPPEM value="3"/>
    <fontDirectionHint value="2"/>
    <indexToLocFormat value="0"/>
    <glyphDataFormat value="0"/>
  </head>
          <CharString index="0">
            104 callgsubr
            -123 -91 -85 172 callsubr
            -137 -25 65 -108 154 146 callsubr
            return
          </CharString>
          <CharString index="1">
            -100 callgsubr
            -49 callsubr
            return
          </CharString>
          <CharString index="2">
            26 24 19 26 5 hvcurveto
            27 4 -17 20 -26 hhcurveto
            -27 -24 -20 -27 -4 hvcurveto
            -26 -4 17 -19 26 hhcurveto
            return
          </CharString>
          <CharString index="3">
            326 hlineto
            -51 -284 rlineto
            -53 -9 -28 -55 -73 hhcurveto
            -68 -13 54 51 9 hvcurveto
            6 31 rlineto
            -63 hlineto
            -6 -30 rlineto
            -91 -16 45 -71 102 hhcurveto
            109 54 76 90 16 hvcurveto
            49 282 rlineto
            return
          </CharString>
          <CharString index="4">
            -97 callgsubr
            395 hlineto
            -18 -98 rlineto
            -108 -20 -74 -69 -116 hhcurveto
            -98 hlineto
            -36 -202 -89 callsubr
            return
          </CharString>
          <CharString index="5">
            -49 callgsubr
            136 118 31 callsubr
            -137 -96 -101 -148 -4 hvcurveto
            63 hlineto
            109 65 84 103 79 49 -58 -90 -15 vhcurveto
            -109 -20 -99 -53 -108 hhcurveto
            -148 hlineto
            -30 -171 112 callgsubr
            return
          </CharString>
          <CharString index="6">
            17 351 494 rmoveto
            101 80 -64 -130 -26 hvcurveto
            -383 349 callsubr
            100 65 100 hhcurveto
            196 -321 rmoveto
            -75 hlineto
            -73 -31 -73 -49 -93 hhcurveto
            -102 -78 68 129 18 hvcurveto
            453 hlineto
            5 19 3 14 4 21 rrcurveto
            138 24 -78 114 -160 hhcurveto
            -157 -130 -107 -174 -31 hvcurveto
            -173 -31 95 -108 155 hhcurveto
            137 102 78 103 43 hvcurveto
            return
          </CharString>
          <CharString index="7">
            hlineto
            -80 callsubr
            return
          </CharString>
          <CharString index="8">
            -66 callgsubr
            -67 -58 -79 hhcurveto
            return
          </CharString>
          <CharString index="9">
            121 -92 callgsubr
            return
          </CharString>
          <CharString index="10">
            -108 154 hhcurveto
            -63 callgsubr
            return
          </CharString>
          <CharString index="11">
            366 callsubr
            -56 -57 -77 hhcurveto
            -74 -35 57 82 14 hvcurveto
            30 167 rlineto
            -64 hlineto
            -29 -166 -21 -114 60 -82 110 -1 rlinecurve
            23 callgsubr
            return
          </CharString>
          <CharString index="12">
            -61 hlineto
            -119 -20 -92 -84 -121 hhcurveto
            -118 -74 81 114 21 hvcurveto
            139 25 113 66 127 hhcurveto
            91 hlineto
            32 181 115 callgsubr
            return
          </CharString>
          <CharString index="13">
            -163 -91 callgsubr
            return
          </CharString>
          <CharString index="14">
            -111 -56 70 104 19 hvcurveto
            21 121 rlineto
            4 hlineto
            96 91 45 152 27 144 callsubr
            return
          </CharString>
          <CharString index="15">
            rlineto
            -95 callgsubr
            return
          </CharString>
          <CharString index="16">
            140 -100 callsubr
            return
          </CharString>
          <CharString index="17">
            rmoveto
            28 26 25 29 22 -16 16 -22 -29 -25 -25 -29 -21 15 -17 23 hvcurveto
            154 hmoveto
            28 26 25 30 21 -15 16 -22 -29 -26 -25 -29 -21 15 -17 23 hvcurveto
            return
          </CharString>
          <CharString index="18">
            -85 callgsubr
            16 hvcurveto
            return
          </CharString>
          <CharString index="19">
            rmoveto
            43 hlineto
            31 9 18 14 23 41 10 -47 53 hhcurveto
            47 42 34 59 17 hvcurveto
            -43 hlineto
            -30 -9 -21 -15 -21 -44 -8 47 -52 hhcurveto
            -47 -39 -32 -61 -19 hvcurveto
            return
          </CharString>
          <CharString index="20">
            37 270 -8 rmoveto
            187 140 151 187 137 -93 87 -137 -189 -137 -152 -186 -137 92 -87 137 hvcurveto
            8 59 rmoveto
            -90 -75 55 113 146 98 129 146 91 77 -54 -114 -146 -101 -129 -146 hvcurveto
            return
          </CharString>
          <CharString index="21">
            hlineto
            -98 callsubr
            return
          </CharString>
          <CharString index="22">
            -62 hlineto
            -88 -13 -51 -68 -85 hhcurveto
            -91 86 callgsubr
            28 return
          </CharString>
          <CharString index="23">
            265 callgsubr
            -70 hlineto
            -55 -311 rlineto
            -123 -26 -81 -60 -98 hhcurveto
            -100 -55 62 121 21 hvcurveto
            55 311 rlineto
            -69 hlineto
            -56 -319 rlineto
            -160 -28 85 -76 124 hhcurveto
            80 78 36 69 46 hvcurveto
            return
          </CharString>
          <CharString index="24">
            10 8 -54 callsubr
            -44 85 callsubr
            17 return
          </CharString>
          <CharString index="25">
            -85 callsubr
            160 rlineto
            return
          </CharString>
          <CharString index="26">
            rmoveto
            -82 callsubr
            return
          </CharString>
          <CharString index="27">
            10 54 rlineto
            return
          </CharString>
          <CharString index="28">
            141 -64 callgsubr
            return
          </CharString>
          <CharString index="29">
            rmoveto
            -93 callsubr
            416 227 callgsubr
            -45 360 callgsubr
            -110 1 -97 -75 -20 -122 -15 -88 30 -67 56 -34 rrcurveto
            -59 -36 -65 -53 -87 hhcurveto
            return
          </CharString>
          <CharString index="30">
            rmoveto
            3 14 rlineto
            -45 hlineto
            -51 -9 -33 -29 -63 hhcurveto
            -64 -22 29 51 9 hvcurveto
            -44 hlineto
            -2 -13 rlineto
            -67 -12 36 -56 89 hhcurveto
            91 54 56 66 12 hvcurveto
            return
          </CharString>
          <CharString index="31">
            hlineto
            -10 -54 rlineto
            -67 callgsubr
            return
          </CharString>
          <CharString index="32">
            rmoveto
            -104 -93 callgsubr
            -129 hhcurveto
            478 530 175 callgsubr
            return
          </CharString>
          <CharString index="33">
            rlineto
            -91 callsubr
            return
          </CharString>
          <CharString index="34">
            325 callgsubr
            -50 callsubr
            return
          </CharString>
          <CharString index="35">
            -102 508 644 rmoveto
            11 56 rlineto
            -366 hlineto
            -123 -700 rlineto
            365 264 callsubr
            -295 hlineto
            47 268 rlineto
            266 hlineto
            9 56 317 callgsubr
            46 264 rlineto
            return
          </CharString>
          <CharString index="36">
            rmoveto
            -93 -51 61 93 16 hvcurveto
            93 17 72 61 94 hhcurveto
            94 51 -61 -93 -17 hvcurveto
            -93 -16 -72 -61 -95 hhcurveto
            return
          </CharString>
          <CharString index="37">
            hhcurveto
            -103 -57 70 105 18 hvcurveto
            121 21 104 57 113 hhcurveto
            140 hlineto
            31 173 rlineto
            150 -100 callsubr
            return
          </CharString>
          <CharString index="38">
            hhcurveto
            98 73 49 65 42 hvcurveto
            -38 -218 24 callsubr
            return
          </CharString>
          <CharString index="39">
            -10 -54 rlineto
            return
          </CharString>
          <CharString index="40">
            rmoveto
            -150 305 callsubr
            108 87 59 70 43 hvcurveto
            -23 -135 rlineto
            -124 -22 -93 -69 -104 hhcurveto
            -101 -59 51 74 -10 hvcurveto
            -69 hlineto
            -114 2 85 -72 141 hhcurveto
            150 123 101 153 27 hvcurveto
            98 560 rlineto
            -70 hlineto
            -21 -119 rlineto
            69 -19 -66 58 -108 hhcurveto
            166 -281 rmoveto
            -136 -24 -106 -84 -112 hhcurveto
            -114 -74 83 138 25 hvcurveto
            139 24 103 80 114 hhcurveto
            112 77 -84 -136 -25 hvcurveto
            return
          </CharString>
          <CharString index="41">
            -83 -47 54 78 14 hvcurveto
            80 14 67 -68 callgsubr
            return
          </CharString>
          <CharString index="42">
            hhcurveto
            41 hlineto
            77 73 -26 -94 -17 hvcurveto
            -65 -11 -61 -51 -96 hhcurveto
            -117 -48 63 80 14 hvcurveto
            -64 hlineto
            return
          </CharString>
          <CharString index="43">
            218 callsubr
            52 35 -17 -24 20 hvcurveto
            -2 1 vlineto
            22 -27 4 -36 -6 -33 rrcurveto
            -84 -15 -66 -58 -91 hhcurveto
            -89 -54 60 86 15 hvcurveto
            -60 hlineto
            -120 -22 78 -81 127 hhcurveto
            121 94 76 283 callgsubr
            6 36 -3 36 -14 30 181 -1 rcurveline
            384 callsubr
            return
          </CharString>
          <CharString index="44">
            rmoveto
            -105 -79 70 119 21 hvcurveto
            9 49 22 42 30 32 244 183 callgsubr
            -48 -20 -58 hhcurveto
            return
          </CharString>
          <CharString index="45">
            121 callgsubr
            -72 -67 -102 -18 hvcurveto
            22 callgsubr
            13 49 72 callsubr
            -102 hlineto
            -108 -88 -62 -108 -20 hvcurveto
            383 callsubr
            105 hhcurveto
            endchar
          </CharString>
          <CharString index="46">
            120 -60 callsubr
            return
          </CharString>
          <CharString index="47">
            -46 callgsubr
            141 -100 callsubr
            return
          </CharString>
          <CharString index="48">
            153 -1 95 103 24 138 21 118 -45 88 -93 19 24 142 rcurveline
            261 -100 callsubr
            return
          </CharString>
          <CharString index="49">
            -32 callsubr
            -695 hlineto
            return
          </CharString>
          <CharString index="50">
            -74 -37 56 78 15 hvcurveto
            53 304 rlineto
            239 hlineto
            -53 -304 rlineto
            -78 -14 -54 -56 -75 hhcurveto
            return
          </CharString>
          <CharString index="51">
            hlineto
            -10 -54 rlineto
            -19 callsubr
            return
          </CharString>
          <CharString index="52">
            -94 callsubr
            152 hlineto
            -78 -444 rlineto
            return
          </CharString>
          <CharString index="53">
            1 1 12 hvcurveto
            10 57 rlineto
            -1 -10 -10 86 callsubr
            return
          </CharString>
          <CharString index="54">
            rmoveto
            78 14 69 44 67 hhcurveto
            70 52 -47 -75 -14 hvcurveto
            -12 -66 -48 -39 -60 -33 -91 4 -60 50 13 84 rrcurveto
            120 -625 rmoveto
            59 hlineto
            48 267 rlineto
            -55 hlineto
            -72 -13 -57 -59 -82 hhcurveto
            -78 -36 53 67 12 hvcurveto
            18 101 99 35 98 46 rrcurveto
            return
          </CharString>
          <CharString index="55">
            -17 callgsubr
            -6 -55 103 callsubr
            return
          </CharString>
          <CharString index="56">
            63 -86 callsubr
            return
          </CharString>
          <CharString index="57">
            -104 -19 87 -38 83 -65 callsubr
            return
          </CharString>
          <CharString index="58">
            -26 callgsubr
            40 hvcurveto
            return
          </CharString>
          <CharString index="59">
            28 26 23 29 6 hvcurveto
            29 5 -18 22 -29 hhcurveto
            -28 -27 -22 -29 -5 hvcurveto
            -29 -5 18 -23 29 hhcurveto
            return
          </CharString>
          <CharString index="60">
            71 131 75 callsubr
            return
          </CharString>
          <CharString index="61">
            hlineto
            -45 callsubr
            return
          </CharString>
          <CharString index="62">
            120 -46 callgsubr
            return
          </CharString>
          <CharString index="63">
            -40 callsubr
            -22 -20 282 callsubr
            return
          </CharString>
          <CharString index="64">
            1 callgsubr
            59 73 98 hhcurveto
            95 32 -72 callgsubr
            rlineto
            120 21 63 80 97 hhcurveto
            return
          </CharString>
          <CharString index="65">
            hlineto
            -23 -133 rlineto
            -127 -30 callgsubr
            return
          </CharString>
          <CharString index="66">
            rmoveto
            25 24 21 25 4 hvcurveto
            25 5 -17 21 -25 hhcurveto
            -26 -24 -21 -25 -5 hvcurveto
            -25 -4 17 -21 26 hhcurveto
            endchar
          </CharString>
          <CharString index="67">
            rmoveto
            120 90 50 91 54 hvcurveto
            -89 19 73 -51 100 hhcurveto
            99 73 49 66 42 hvcurveto
            -38 -219 rlineto
            42 callgsubr
            -632 -97 callgsubr
            430 128 callgsubr
            -125 -107 -79 -128 -31 hvcurveto
            0 vlineto
            -136 -36 -91 -70 -129 -71 callgsubr
            return
          </CharString>
          <CharString index="68">
            0 27 hhcurveto
            139 121 56 141 24 hvcurveto
            103 18 -58 77 -108 hhcurveto
            -135 -83 -99 -130 -1 hvcurveto
            58 hlineto
            100 -1 56 74 96 hhcurveto
            76 34 -55 -68 -12 hvcurveto
            -124 -21 310 callsubr
            -100 hlineto
            -183 -53 88 -134 195 hhcurveto
            return
          </CharString>
          <CharString index="69">
            95 callsubr
            -15 -88 150 callgsubr
            return
          </CharString>
          <CharString index="70">
            hlineto
            -61 callsubr
            return
          </CharString>
          <CharString index="71">
            -108 -43 59 callgsubr
            -46 -263 2 callgsubr
            -88 -16 -68 -73 -101 hhcurveto
            return
          </CharString>
          <CharString index="72">
            hvcurveto
            -1 -13 rlineto
            54 hlineto
            2 13 return
          </CharString>
          <CharString index="73">
            -158 rlineto
            72 hlineto
            247 202 26 18 20 23 16 25 rlinecurve
            -180 -61 rmoveto
            -95 -61 65 112 20 hvcurveto
            108 18 89 65 91 hhcurveto
            117 33 -89 -78 -10 hvcurveto
            -3 -14 2 callgsubr
            return
          </CharString>
          <CharString index="74">
            hhcurveto
            125 76 90 121 return
          </CharString>
          <CharString index="75">
            -80 callgsubr
            90 hlineto
            29 170 rlineto
            190 -100 callsubr
            return
          </CharString>
          <CharString index="76">
            rmoveto
            -148 -84 -119 84 -11 -57 120 -82 148 82 rlineto
            endchar
          </CharString>
          <CharString index="77">
            hlineto
            5 26 2 callgsubr
            2 vlineto
            4 19 295 callsubr
            133 rlineto
            return
          </CharString>
          <CharString index="78">
            hhcurveto
            -13 callgsubr
            return
          </CharString>
          <CharString index="79">
            hlineto
            49 32 42 56 16 85 return
          </CharString>
          <CharString index="80">
            686 rmoveto
            740 5 callgsubr
            -87 -79 -39 -68 -49 hvcurveto
            63 -22 -54 38 -73 hhcurveto
            -95 -63 -50 -63 -36 35 callsubr
            785 -5 rmoveto
            -104 -93 callgsubr
            -129 hhcurveto
            return
          </CharString>
          <CharString index="81">
            hlineto
            -53 -298 rlineto
            -115 -21 63 -79 114 hhcurveto
            116 74 81 113 19 hvcurveto
            53 298 rlineto
            return
          </CharString>
          <CharString index="82">
            rmoveto
            25 23 18 25 5 hvcurveto
            26 3 -16 19 -25 hhcurveto
            -25 -23 -19 -26 -4 hvcurveto
            -25 -4 16 -18 25 hhcurveto
            return
          </CharString>
          <CharString index="83">
            rmoveto
            -134 222 callgsubr
            25 199 callgsubr
            123 3 91 49 25 142 159 callgsubr
            -316 rlineto
            1 vlineto
            -118 -19 -104 -79 -115 hhcurveto
            return
          </CharString>
          <CharString index="84">
            8 46 273 rmoveto
            -173 -31 93 -108 154 hhcurveto
            137 103 77 109 44 hvcurveto
            -75 hlineto
            -80 -33 -73 -47 -93 hhcurveto
            -107 -73 74 148 26 hvcurveto
            148 26 100 73 107 hhcurveto
            92 57 -48 -78 4 hvcurveto
            75 hlineto
            113 -5 -76 73 -137 hhcurveto
            -154 -130 -108 -173 -31 hvcurveto
            return
          </CharString>
          <CharString index="85">
            -90 123 hhcurveto
            95 68 49 63 return
          </CharString>
          <CharString index="86">
            3 88 54 78 callgsubr
            return
          </CharString>
          <CharString index="87">
            9 54 rlineto
            return
          </CharString>
          <CharString index="88">
            135 callgsubr
            -237 14 callsubr
            63 hlineto
            return
          </CharString>
          <CharString index="89">
            47 496 hmoveto
            74 hlineto
            -132 690 rlineto
            -79 hlineto
            -377 -690 rlineto
            74 hlineto
            90 166 rlineto
            319 hlineto
            return
          </CharString>
          <CharString index="90">
            431 hlineto
            -23 -133 rlineto
            -131 hlineto
            -90 -99 -31 -106 -18 hvcurveto
            -38 callgsubr
            return
          </CharString>
          <CharString index="91">
            8 callgsubr
            209 callsubr
            return
          </CharString>
          <CharString index="92">
            68 115 19 hvcurveto
            111 20 return
          </CharString>
          <CharString index="93">
            288 262 -37 callgsubr
            return
          </CharString>
          <CharString index="94">
            -88 callgsubr
            417 262 rmoveto
            84 callgsubr
            -1337 -97 callgsubr
            596 hlineto
            -21 -114 -18 -101 48 -43 64 -10 rlinecurve
            -3 vlineto
            -72 -10 -67 -43 -27 -74 rrcurveto
            -68 -32 -76 -61 -86 hhcurveto
            -90 -1 -69 56 18 102 rrcurveto
            89 callgsubr
            96 -73 116 hhcurveto
            77 69 35 55 50 hvcurveto
            return
          </CharString>
          <CharString index="95">
            21 callsubr
            -56 return
          </CharString>
          <CharString index="96">
            rmoveto
            -36 callsubr
            return
          </CharString>
          <CharString index="97">
            hvcurveto
            11 64 -20 38 callsubr
            return
          </CharString>
          <CharString index="98">
            -97 callgsubr
            906 hlineto
            -18 -98 rlineto
            -108 -20 -74 -69 -116 hhcurveto
            -54 hlineto
            60 -15 -60 35 -104 hhcurveto
            -176 hlineto
            -120 -97 -67 361 callgsubr
            -115 -20 76 -76 111 hhcurveto
            109 26 callgsubr
            -33 29 rrcurveto
            68 hlineto
            return
          </CharString>
          <CharString index="99">
            rlineto
            64 -37 callsubr
            return
          </CharString>
          <CharString index="100">
            hhcurveto
            -144 -118 -96 -144 -24 hvcurveto
            -144 -24 95 -94 141 hhcurveto
            return
          </CharString>
          <CharString index="101">
            64 -86 callsubr
            return
          </CharString>
          <CharString index="102">
            rmoveto
            -107 -42 73 117 21 hvcurveto
            40 234 rlineto
            322 hlineto
            -47 -263 2 callgsubr
            -87 -15 -73 -74 -99 hhcurveto
            return
          </CharString>
          <CharString index="103">
            129 callsubr
            -113 -24 return
          </CharString>
          <CharString index="104">
            123 callsubr
            140 -64 callgsubr
            -1557 -97 callgsubr
            1354 344 callgsubr
            -30 -167 rlineto
            -82 -15 -47 -57 -79 hhcurveto
            -73 -41 54 87 12 hvcurveto
            2 12 rlineto
            119 17 -55 80 -111 hhcurveto
            -110 -66 -83 -72 310 callgsubr
            -2 -36 84 -108 hhcurveto
            -123 -92 -82 -142 -24 hvcurveto
            -137 -23 63 -108 151 hhcurveto
            10 11 -54 callsubr
            -43 81 104 18 hvcurveto
            101 18 62 69 97 hhcurveto
            93 24 -81 -119 -15 -35 callsubr
            rlineto
            107 14 67 93 92 hhcurveto
            88 29 -65 -97 -15 hvcurveto
            -114 -16 60 -76 117 hhcurveto
            117 72 81 115 21 hvcurveto
            19 112 rlineto
            324 callsubr
            endchar
          </CharString>
          <CharString index="105">
            hlineto
            6 callgsubr
            return
          </CharString>
          <CharString index="106">
            -87 21 callgsubr
            return
          </CharString>
          <CharString index="107">
            rmoveto
            403 hlineto
            -19 -107 rlineto
            -119 -21 -74 -58 -115 hhcurveto
            -107 hlineto
            -34 -196 rlineto
            -125 -25 62 -90 128 hhcurveto
            117 76 79 122 21 hvcurveto
            4 1 5 1 7 vhcurveto
            -62 hlineto
            -3 -17 rlineto
            -87 -15 -53 -58 -79 hhcurveto
            -88 -36 66 91 18 hvcurveto
            26 146 rlineto
            62 hlineto
            148 89 81 149 27 hvcurveto
            18 107 rlineto
            129 -64 callgsubr
            -594 hlineto
            return
          </CharString>
          <CharString index="108">
            73 117 20 hvcurveto
            42 234 rlineto
            return
          </CharString>
          <CharString index="109">
            rmoveto
            -105 -80 70 119 21 hvcurveto
            9 49 22 42 30 32 244 -262 180 callsubr
            799 -146 -1 callgsubr
            -1320 -97 callgsubr
            1116 336 callsubr
            -57 -57 -77 hhcurveto
            -74 -36 56 81 14 hvcurveto
            1 vlineto
            1 1 2 2 vvcurveto
            111 19 -56 127 -171 hhcurveto
            -144 -119 -94 -144 -26 hvcurveto
            -144 -25 95 -96 142 hhcurveto
            106 83 52 73 49 hvcurveto
            19 -52 46 -32 71 -1 118 -1 78 82 21 115 20 112 rcurveline
            209 329 callsubr
            -670 256 callsubr
            -32 -35 -244 262 rcurveline
            31 41 50 18 52 hhcurveto
            endchar
          </CharString>
          <CharString index="110">
            179 callsubr
            177 hlineto
            -171 -32 90 -111 162 hhcurveto
            111 80 53 63 43 212 callgsubr
            return
          </CharString>
          <CharString index="111">
            hlineto
            -13 -75 rlineto
            -128 -23 -83 103 callgsubr
            return
          </CharString>
          <CharString index="112">
            108 -56 callgsubr
            return
          </CharString>
          <CharString index="113">
            hhcurveto
            -114 -63 -80 -73 -29 hvcurveto
            -107 callsubr
            return
          </CharString>
          <CharString index="114">
            220 callgsubr
            -262 -219 rlineto
            73 hlineto
            306 262 18 14 16 16 13 19 rlinecurve
            return
          </CharString>
          <CharString index="115">
            80 13 callsubr
            return
          </CharString>
          <CharString index="116">
            -41 96 699 rmoveto
            150 -427 -48 -272 rlineto
            70 hlineto
            48 272 300 427 rlineto
            -79 hlineto
            -245 -363 -117 363 rlineto
            return
          </CharString>
          <CharString index="117">
            -77 -126 -22 hvcurveto
            -16 -86 30 -63 59 -32 rrcurveto
            -59 -35 -64 -53 -89 hhcurveto
            return
          </CharString>
          <CharString index="118">
            687 878 174 rmoveto
            -134 -66 102 138 27 hvcurveto
            2 1 3 1 3 vhcurveto
            124 4 90 55 21 120 15 85 113 callsubr
            238 -174 73 callgsubr
            -1350 -97 callgsubr
            867 160 callgsubr
            -108 -18 -82 290 callsubr
            -83 -15 -56 -56 277 callgsubr
            -64 hlineto
            -27 -154 -21 -117 61 -81 108 -1 rlinecurve
            119 122 callsubr
            14 80 rcurveline
            151 hlineto
            13 11 0 10 hhcurveto
            -166 -31 83 -130 373 callsubr
            80 52 62 358 callgsubr
            return
          </CharString>
          <CharString index="119">
            hhcurveto
            -39 hlineto
            -7 -44 rlineto
            40 hlineto
            91 43 -7 -187 69 hvcurveto
            87 -87 -37 3 -100 hhcurveto
            -38 hlineto
            -8 -43 rlineto
            39 hlineto
            return
          </CharString>
          <CharString index="120">
            52 63 44 145 callgsubr
            return
          </CharString>
          <CharString index="121">
            rlineto
            -147 -26 -10 callgsubr
            return
          </CharString>
          <CharString index="122">
            48 callgsubr
            85 16 return
          </CharString>
          <CharString index="123">
            -26 81 -90 123 -9 callgsubr
          </CharString>
          <CharString index="124">
            70 callsubr
            -25 65 -73 callgsubr
            return
          </CharString>
          <CharString index="125">
            -60 61 546 rmoveto
            128 -542 -152 -261 rlineto
            74 hlineto
            465 803 rlineto
            -73 hlineto
            -261 -463 -103 463 rlineto
            return
          </CharString>
          <CharString index="126">
            -86 callgsubr
            rlineto
            120 21 63 80 97 hhcurveto
            return
          </CharString>
          <CharString index="127">
            hhcurveto
            77 60 35 57 193 callsubr
            return
          </CharString>
          <CharString index="128">
            55 82 hhcurveto
            80 48 return
          </CharString>
          <CharString index="129">
            142 26 hvcurveto
            129 24 -77 81 -117 hhcurveto
            return
          </CharString>
          <CharString index="130">
            63 -46 callsubr
            return
          </CharString>
          <CharString index="131">
            rlineto
            23 callsubr
            return
          </CharString>
          <CharString index="132">
            -376 153 699 rmoveto
            -123 -699 rlineto
            70 hlineto
            123 699 rlineto
            return
          </CharString>
          <CharString index="133">
            19 callgsubr
            311 callgsubr
            -144 -26 callgsubr
            40 hvcurveto
            -179 -57 -107 callgsubr
            return
          </CharString>
          <CharString index="134">
            91 567 rmoveto
            -87 -15 49 -56 81 hhcurveto
            80 70 56 87 15 hvcurveto
            85 15 -49 56 -81 hhcurveto
            -80 -70 -56 -85 -15 hvcurveto
            157 96 rmoveto
            50 27 -35 -61 -10 hvcurveto
            -62 -11 -41 -36 -49 hhcurveto
            -51 -27 36 62 11 hvcurveto
            61 11 40 35 50 hhcurveto
            311 37 rmoveto
            -534 -700 rlineto
            70 hlineto
            534 700 rlineto
            -344 -567 rmoveto
            -86 -15 50 -56 80 hhcurveto
            80 70 56 86 15 hvcurveto
            86 15 -50 56 -80 hhcurveto
            -80 -70 295 callgsubr
            157 97 rmoveto
            49 28 -35 -62 -11 hvcurveto
            -61 -11 -40 -35 -50 hhcurveto
            -49 -28 35 61 11 hvcurveto
            62 11 40 35 50 hhcurveto
            return
          </CharString>
          <CharString index="135">
            129 callgsubr
            -145 -133 -69 -160 -28 208 callsubr
            return
          </CharString>
          <CharString index="136">
            19 221 377 rmoveto
            -93 -22 -69 -66 -16 -97 rrcurveto
            -131 -24 86 -82 153 hhcurveto
            155 114 82 131 24 hvcurveto
            16 96 -45 66 -86 23 88 27 55 62 14 78 rrcurveto
            106 19 -67 83 -153 hhcurveto
            -153 -97 -82 -107 -19 hvcurveto
            -14 -80 32 -59 80 -28 rrcurveto
            160 297 rmoveto
            101 58 -48 -89 -16 hvcurveto
            -84 -14 -76 -52 -101 hhcurveto
            -100 -58 52 83 15 hvcurveto
            91 16 76 47 99 hhcurveto
            -58 -327 rmoveto
            103 75 -46 -106 -19 hvcurveto
            -98 -17 -83 -59 -113 hhcurveto
            -114 -63 58 99 18 hvcurveto
            107 19 92 45 102 hhcurveto
            endchar
          </CharString>
          <CharString index="137">
            rlineto
            -6 callsubr
            return
          </CharString>
          <CharString index="138">
            69 22 callsubr
            return
          </CharString>
          <CharString index="139">
            13 rmoveto
            -103 callgsubr
            return
          </CharString>
          <CharString index="140">
            150 callsubr
            123 callsubr
            return
          </CharString>
          <CharString index="141">
            31 25 686 rmoveto
            445 118 callgsubr
            -58 callsubr
            return
          </CharString>
          <CharString index="142">
            hvcurveto
            -280 -290 -107 callgsubr
            return
          </CharString>
          <CharString index="143">
            156 rmoveto
            -104 -93 callgsubr
            -129 hhcurveto
            return
          </CharString>
          <CharString index="144">
            -75 -66 -94 -16 hvcurveto
            102 callsubr
            return
          </CharString>
          <CharString index="145">
            48 -32 29 rrcurveto
            217 hlineto
            -80 -452 rlineto
            return
          </CharString>
          <CharString index="146">
            132 76 91 125 18 hvcurveto
            -62 hlineto
            -98 return
          </CharString>
          <CharString index="147">
            241 callgsubr
            5 347 callgsubr
            -200 -162 rlineto
            72 hlineto
            242 198 21 13 18 18 14 19 rlinecurve
            332 callgsubr
            55 callsubr
            -666 hlineto
            endchar
          </CharString>
          <CharString index="148">
            63 -40 callgsubr
            return
          </CharString>
          <CharString index="149">
            138 25 -83 90 -126 hhcurveto
            -112 -76 -66 -78 -41 hvcurveto
            66 callsubr
            16 56 -19 callgsubr
            -637 524 rmoveto
            1064 -100 callsubr
            -1064 hlineto
            endchar
          </CharString>
          <CharString index="150">
            rmoveto
            -70 hlineto
            -103 -587 -284 587 rlineto
            292 callsubr
            70 hlineto
            104 588 283 -588 rlineto
            70 hlineto
            return
          </CharString>
          <CharString index="151">
            153 517 hmoveto
            232 callgsubr
            -65 -372 rlineto
            -128 -23 -111 -82 -118 hhcurveto
            -142 -67 86 129 26 hvcurveto
            -1 16 20 0 27 hhcurveto
            140 121 56 141 24 hvcurveto
            103 19 -59 77 -110 hhcurveto
            -133 -83 -99 -130 -1 hvcurveto
            58 hlineto
            98 -1 56 76 95 hhcurveto
            77 34 380 callgsubr
            -101 hhcurveto
            -101 hlineto
            -5 -16 -4 -16 -2 -15 rrcurveto
            -164 -30 93 -106 165 return
          </CharString>
          <CharString index="152">
            0 27 hhcurveto
            139 121 56 141 24 hvcurveto
            103 18 -58 77 -108 hhcurveto
            -24 -22 -3 -6 -21 hvcurveto
            -740 -97 callgsubr
            660 hlineto
            -40 -41 -21 -59 -1 -66 rrcurveto
            58 hlineto
            100 -1 56 74 96 hhcurveto
            76 34 -55 -68 -12 hvcurveto
            -124 -21 310 callsubr
            -399 hlineto
            -121 -97 -67 -118 -20 hvcurveto
            -113 -20 73 -78 112 hhcurveto
            110 90 70 111 21 346 callsubr
            -33 29 rrcurveto
            181 hlineto
            -155 -22 88 -109 176 hhcurveto
            return
          </CharString>
          <CharString index="153">
            26 141 -87 99 -128 14 24 135 rcurveline
            337 -100 callsubr
            return
          </CharString>
          <CharString index="154">
            92 callgsubr
            184 return
          </CharString>
          <CharString index="155">
            -32 7 41 -71 117 hhcurveto
            124 -1 70 72 16 89 rrcurveto
            130 23 -98 42 -100 hhcurveto
            -45 hlineto
            143 callsubr
            77 16 62 hhcurveto
            175 -30 callsubr
            return
          </CharString>
          <CharString index="156">
            rmoveto
            -197 123 callgsubr
            197 hlineto
            return
          </CharString>
          <CharString index="157">
            rmoveto
            -24 -137 rlineto
            -76 hlineto
            -11 -59 rlineto
            76 hlineto
            -60 -339 rlineto
            -109 -19 44 -39 95 hhcurveto
            75 hlineto
            11 60 rlineto
            -64 hlineto
            -64 -19 21 67 11 hvcurveto
            60 339 rlineto
            151 hlineto
            11 59 rlineto
            -151 hlineto
            24 137 rlineto
            endchar
          </CharString>
          <CharString index="158">
            -144 16 callsubr
          </CharString>
          <CharString index="159">
            rmoveto
            423 114 callgsubr
            -22 -125 67 -93 113 -27 -181 -160 rcurveline
            72 hlineto
            171 152 rlineto
            4 hlineto
            117 -152 rlineto
            65 hlineto
            -122 156 130 22 92 97 23 136 rlinecurve
            163 callsubr
          </CharString>
          <CharString index="160">
            hhcurveto
            101 272 callsubr
            return
          </CharString>
          <CharString index="161">
            -77 -35 -54 -69 -15 -84 rrcurveto
            -119 -21 67 -102 148 hhcurveto
            129 85 81 79 27 hvcurveto
            endchar
          </CharString>
          <CharString index="162">
            211 callsubr
            -12 -68 -43 -41 -47 -22 -2 1 rcurveline
            -4 -3 rlineto
            -10 -25 -26 -5 -23 -70 callsubr
            return
          </CharString>
          <CharString index="163">
            rmoveto
            150 129 96 149 26 hvcurveto
            46 callsubr
            return
          </CharString>
          <CharString index="164">
            955 411 rmoveto
            -46 hlineto
            89 -4 -61 62 -99 hhcurveto
            -96 -63 -51 -63 -36 hvcurveto
            42 238 rlineto
            return
          </CharString>
          <CharString index="165">
            hlineto
            16 91 rlineto
            124 22 -37 359 callsubr
            return
          </CharString>
          <CharString index="166">
            168 callsubr
            -131 384 callgsubr
            21 hvcurveto
            133 24 return
          </CharString>
          <CharString index="167">
            -89 153 hhcurveto
            28 59 callsubr
            84 62 124 hhcurveto
            return
          </CharString>
          <CharString index="168">
            rmoveto
            -83 -47 54 133 callsubr
            -77 -15 hvcurveto
            return
          </CharString>
          <CharString index="169">
            47 callsubr
            269 -269 rlineto
            return
          </CharString>
          <CharString index="170">
            -16 callgsubr
            -145 -26 54 -94 134 hhcurveto
            6 294 callgsubr
            -260 -220 rlineto
            72 hlineto
            296 258 20 14 18 18 14 21 rlinecurve
            -53 -302 rlineto
            63 hlineto
            58 327 rlineto
            -1 vlineto
            88 15 65 97 119 hhcurveto
            90 60 -66 -106 -18 hvcurveto
            return
          </CharString>
          <CharString index="171">
            125 386 699 rmoveto
            -208 hlineto
            -56 -318 rlineto
            -95 hlineto
            -11 -65 rlineto
            94 hlineto
            -56 -316 rlineto
            208 hlineto
            233 160 131 217 38 hvcurveto
            219 39 -113 132 -233 hhcurveto
            -114 -644 rmoveto
            -137 hlineto
            46 261 rlineto
            204 hlineto
            11 65 rlineto
            -204 hlineto
            46 261 rlineto
            138 hlineto
            197 289 callgsubr
          </CharString>
          <CharString index="172">
            230 26 686 rmoveto
            692 hlineto
            -32 -182 rlineto
            -275 77 callsubr
            113 79 81 283 callgsubr
            8 46 rlineto
            214 hlineto
            -22 -124 -414 -357 rlineto
            74 hlineto
            329 289 -44 -259 rlineto
            60 -2 callsubr
            -893 hlineto
            return
          </CharString>
          <CharString index="173">
            -2 hlineto
            78 -15 -56 66 -112 hhcurveto
            -125 -111 -90 -138 -24 hvcurveto
            -132 -23 81 -91 127 hhcurveto
            return
          </CharString>
          <CharString index="174">
            -65 callsubr
            -110 -18 78 -83 150 hhcurveto
            endchar
          </CharString>
          <CharString index="175">
            240 -8 -102 callsubr
            return
          </CharString>
          <CharString index="176">
            12 callsubr
            106 29 -5 -97 101 hvcurveto
            -145 hlineto
            -10 271 callsubr
            -120 -686 rlineto
            return
          </CharString>
          <CharString index="177">
            -28 hvcurveto
            104 callgsubr
            -123 -91 -85 172 callsubr
            -137 return
          </CharString>
          <CharString index="178">
            72 hlineto
            174 154 118 -154 rlineto
            65 hlineto
            return
          </CharString>
          <CharString index="179">
            42 59 hhcurveto
            72 20 295 callgsubr
            -17 -100 rlineto
            return
          </CharString>
          <CharString index="180">
            -97 callgsubr
            135 callgsubr
            return
          </CharString>
          <CharString index="181">
            33 callgsubr
            -33 -35 39 callgsubr
            return
          </CharString>
          <CharString index="182">
            23 151 callgsubr
            return
          </CharString>
          <CharString index="183">
            rmoveto
            54 hlineto
            30 13 26 20 42 hhcurveto
            41 22 -23 -35 -7 hvcurveto
            -38 -7 -32 -21 -41 hhcurveto
            -48 hlineto
            -7 -39 rlineto
            48 hlineto
            42 27 -21 -38 -7 hvcurveto
            -36 -6 -31 -22 -43 hhcurveto
            -38 -25 15 45 1 hvcurveto
            -56 hlineto
            -68 -6 42 -36 75 hhcurveto
            81 56 45 51 9 hvcurveto
            8 44 -24 28 -35 11 1 2 rcurveline
            40 11 30 28 7 41 rrcurveto
            58 10 -46 43 -70 hhcurveto
            -76 -54 -40 -55 -16 hvcurveto
            endchar
          </CharString>
          <CharString index="184">
            hlineto
            -17 -99 rlineto
            -83 -14 -57 -56 -77 hhcurveto
            -75 -34 56 83 14 hvcurveto
            18 99 rlineto
            -64 hlineto
            -18 -99 rlineto
            -115 -21 60 -81 116 hhcurveto
            return
          </CharString>
          <CharString index="185">
            90 callsubr
            -22 -20 -3 -6 -19 hvcurveto
            return
          </CharString>
          <CharString index="186">
            rmoveto
            -102 -66 68 115 19 hvcurveto
            108 20 95 71 101 hhcurveto
            105 52 -71 -73 -4 hvcurveto
            -1 -6 -1 -8 -1 -8 -1 -6 -1 -5 -1 -4 rrcurveto
            -82 -20 -67 -99 -127 hhcurveto
            460 18 rmoveto
            -133 -69 74 119 22 hvcurveto
            1 4 1 5 5 vvcurveto
            129 2 89 56 24 140 19 107 272 callgsubr
            -56 -317 rlineto
            1 vlineto
            -118 -20 -108 -78 -115 hhcurveto
            return
          </CharString>
          <CharString index="187">
            hvcurveto
            0 vlineto
            -26 -147 -89 callsubr
            endchar
          </CharString>
          <CharString index="188">
            118 122 callsubr
            return
          </CharString>
          <CharString index="189">
            288 262 241 callsubr
            return
          </CharString>
          <CharString index="190">
            71 107 hhcurveto
            33 331 callsubr
            -361 hlineto
            -9 -51 rlineto
            198 hlineto
            return
          </CharString>
          <CharString index="191">
            -25 9 41 -69 115 hhcurveto
            118 67 68 83 15 hvcurveto
            11 return
          </CharString>
          <CharString index="192">
            79 106 19 hvcurveto
            97 return
          </CharString>
          <CharString index="193">
            -1 -9 hhcurveto
            -116 return
          </CharString>
          <CharString index="194">
            -69 -116 hhcurveto
            -684 -250 -107 callgsubr
            return
          </CharString>
          <CharString index="195">
            -51 240 -30 rmoveto
            74 hlineto
            365 321 12 69 rlineto
            -663 326 rmoveto
            720 -100 callsubr
            -720 hlineto
            204 -531 rmoveto
            113 79 81 283 callgsubr
            8 46 rlineto
            245 hlineto
            10 53 rlineto
            -306 77 callsubr
            return
          </CharString>
          <CharString index="196">
            hhcurveto
            5 callsubr
            return
          </CharString>
          <CharString index="197">
            275 callgsubr
            89 -104 165 29 callgsubr
            -171 58 callsubr
            return
          </CharString>
          <CharString index="198">
            rmoveto
            -134 -69 85 137 25 -83 callgsubr
            216 hlineto
            -56 -316 rlineto
            1 vlineto
            -118 -20 -102 -79 -117 hhcurveto
            return
          </CharString>
          <CharString index="199">
            hvcurveto
            11 63 -20 49 -32 29 rrcurveto
            return
          </CharString>
          <CharString index="200">
            hlineto
            -22 -124 rlineto
            -45 hlineto
            -164 -147 -87 -186 -33 hvcurveto
            return
          </CharString>
          <CharString index="201">
            -145 -25 94 -92 132 hhcurveto
            12 11 1 1 12 hvcurveto
            -196 -155 rlineto
            71 hlineto
            174 582 rmoveto
            131 45 -100 -92 -17 hvcurveto
            -6 -40 -20 -43 -32 -35 -244 -5 callgsubr
            endchar
          </CharString>
          <CharString index="202">
            162 callsubr
            75 hhcurveto
            100 hlineto
            return
          </CharString>
          <CharString index="203">
            hhcurveto
            -38 hlineto
            274 callgsubr
            return
          </CharString>
          <CharString index="204">
            -143 122 -20 rmoveto
            77 hlineto
            350 298 11 69 rlineto
            -534 339 rmoveto
            34 callgsubr
            -17 42 -75 105 hhcurveto
            111 53 76 89 16 hvcurveto
            40 233 rlineto
            203 -100 callsubr
            -592 hlineto
            return
          </CharString>
          <CharString index="205">
            rmoveto
            -133 -65 79 126 14 hvcurveto
            -11 1 rlineto
            8 0 6 6 vvcurveto
            6 hlineto
            134 94 64 137 24 151 callgsubr
            216 72 callgsubr
            -409 356 74 callsubr
            endchar
          </CharString>
          <CharString index="206">
            -17 callsubr
            29 164 rlineto
            84 callsubr
            60 -19 41 -33 25 return
          </CharString>
          <CharString index="207">
            -98 callgsubr
            419 285 49 callsubr
            return
          </CharString>
          <CharString index="208">
            -81 hlineto
            -14 -76 rlineto
            46 hlineto
            -4 -25 rlineto
            -34 -6 -16 -18 -34 hhcurveto
            -6 -35 rlineto
            58 38 29 73 13 hvcurveto
            4 24 return
          </CharString>
          <CharString index="209">
            53 callgsubr
            -62 -8 -71 return
          </CharString>
          <CharString index="210">
            rmoveto
            5 callsubr
            return
          </CharString>
          <CharString index="211">
            hvcurveto
            169 callgsubr
            return
          </CharString>
          <CharString index="212">
            rmoveto
            -271 -28 callsubr
            18 98 rcurveline
            376 hlineto
            -18 -102 rlineto
            -124 -24 -78 -45 -110 hhcurveto
            214 -249 rmoveto
            -130 -75 81 115 27 hvcurveto
            3 1 3 329 callgsubr
            4 82 62 25 137 20 111 272 callgsubr
            384 callsubr
            -107 -28 -96 -69 -110 hhcurveto
            return
          </CharString>
          <CharString index="213">
            -39 rmoveto
            -105 callsubr
            return
          </CharString>
          <CharString index="214">
            22 122 -62 85 -103 18 24 132 rcurveline
            285 -100 callsubr
            -1064 -97 callgsubr
            717 hlineto
            -23 -130 -101 -7 -69 -63 -39 -73 rlinecurve
            195 callsubr
            return
          </CharString>
          <CharString index="215">
            hlineto
            -25 120 callsubr
            -110 hhcurveto
            return
          </CharString>
          <CharString index="216">
            213 callgsubr
            124 hlineto
            -17 -29 -13 -34 -7 -37 rrcurveto
            -149 -27 86 -91 133 -69 callsubr
            endchar
          </CharString>
          <CharString index="217">
            37 callgsubr
            140 hlineto
            10 54 rlineto
            return
          </CharString>
          <CharString index="218">
            hmoveto
            64 116 callgsubr
            return
          </CharString>
          <CharString index="219">
            300 258 rmoveto
            -104 -52 74 118 21 hvcurveto
            32 183 272 -267 rlineto
            -63 -31 -60 -45 -78 hhcurveto
            189 169 rmoveto
            -1 -5 -1 -6 -1 -5 -279 275 rcurveline
            328 hlineto
            -46 -259 rlineto
            -463 259 301 callgsubr
            -151 -27 72 -98 132 return
          </CharString>
          <CharString index="220">
            rcurveline
            215 hlineto
            -59 -333 rlineto
            -108 -27 -98 -71 -110 hhcurveto
            return
          </CharString>
          <CharString index="221">
            rmoveto
            -278 hlineto
            207 381 rlineto
            endchar
          </CharString>
          <CharString index="222">
            rmoveto
            -138 -25 -102 -83 -115 hhcurveto
            -112 -77 84 136 25 hvcurveto
            136 24 107 84 111 hhcurveto
            115 73 -80 172 callsubr
            endchar
          </CharString>
          <CharString index="223">
            271 callsubr
            -121 -686 rlineto
            return
          </CharString>
          <CharString index="224">
            rmoveto
            -74 -418 rlineto
            -242 hlineto
            386 422 rmoveto
            295 264 callsubr
            -406 hlineto
            -530 -700 rlineto
            77 hlineto
            126 166 rlineto
            274 hlineto
            -30 -166 rlineto
            365 264 callsubr
            -294 hlineto
            47 268 rlineto
            265 hlineto
            9 56 317 callgsubr
            endchar
          </CharString>
          <CharString index="225">
            rmoveto
            44 callgsubr
            -25 -133 109 -78 162 -10 -177 -156 rcurveline
            68 hlineto
            174 154 119 -154 rlineto
            68 hlineto
            -128 162 176 28 132 112 30 170 rlinecurve
            return
          </CharString>
          <CharString index="226">
            -41 -233 rlineto
            return
          </CharString>
          <CharString index="227">
            85 callgsubr
            107 callgsubr
            return
          </CharString>
          <CharString index="228">
            64 -40 callgsubr
            return
          </CharString>
          <CharString index="229">
            -1 81 82 20 115 return
          </CharString>
          <CharString index="230">
            121 -46 callgsubr
            return
          </CharString>
          <CharString index="231">
            54 -133 hhcurveto
            -58 hlineto
            -117 -97 374 callsubr
            -112 -19 72 -78 113 hhcurveto
            109 92 69 109 20 hvcurveto
            11 67 return
          </CharString>
          <CharString index="232">
            rmoveto
            -63 hlineto
            -100 -139 rlineto
            49 hlineto
            -35 139 rmoveto
            -63 hlineto
            -90 -139 rlineto
            49 hlineto
            endchar
          </CharString>
          <CharString index="233">
            rmoveto
            58 hlineto
            40 11 27 23 38 hhcurveto
            33 23 -21 -43 -8 hvcurveto
            -8 -48 -38 -33 -44 -33 -128 -95 rcurveline
            -7 -40 rlineto
            247 hlineto
            8 47 rlineto
            -180 hlineto
            93 64 68 47 39 37 10 56 rlinecurve
            60 11 -38 46 -72 hhcurveto
            -79 -50 -48 -59 -14 hvcurveto
            endchar
          </CharString>
          <CharString index="234">
            hmoveto
            15 callsubr
            63 95 117 hhcurveto
            90 61 -67 -105 -19 hvcurveto
            return
          </CharString>
          <CharString index="235">
            302 callsubr
            66 21 callsubr
            return
          </CharString>
          <CharString index="236">
            hlineto
            -57 -324 rlineto
            return
          </CharString>
          <CharString index="237">
            -28 -155 -89 callsubr
            endchar
          </CharString>
          <CharString index="238">
            hlineto
            -23 -130 312 callsubr
            return
          </CharString>
          <CharString index="239">
            -52 rmoveto
            -79 385 callgsubr
            42 hlineto
            -2 -14 rlineto
            -36 -6 -16 -20 -33 hhcurveto
            -7 -35 rlineto
            return
          </CharString>
          <CharString index="240">
            78 128 callsubr
            -56 return
          </CharString>
          <CharString index="241">
            rrcurveto
            51 callsubr
          </CharString>
          <CharString index="242">
            26 686 rmoveto
            444 309 callsubr
            -73 -13 -56 -60 -96 hhcurveto
            -35 hlineto
            -9 -56 rlineto
            42 hlineto
            121 30 -89 -75 -14 hvcurveto
            -94 -17 -73 -68 -98 hhcurveto
            -97 -64 71 93 17 hvcurveto
            -61 hlineto
            -129 -22 82 -92 138 hhcurveto
            136 return
          </CharString>
          <CharString index="243">
            134 hlineto
            -14 186 callgsubr
            -1 -2 -76 -10 -75 -53 -16 -90 rlinecurve
            -118 -21 84 -66 144 hhcurveto
            return
          </CharString>
          <CharString index="244">
            292 callsubr
            321 360 callsubr
            -251 hlineto
            return
          </CharString>
          <CharString index="245">
            151 584 rmoveto
            -7 -38 rlineto
            -75 hlineto
            -11 -59 rlineto
            76 hlineto
            -86 -487 rlineto
            70 hlineto
            86 487 rlineto
            127 hlineto
            11 59 rlineto
            -128 hlineto
            7 38 rlineto
            79 14 36 34 93 hhcurveto
            11 60 rlineto
            -138 -65 -56 221 callsubr
            return
          </CharString>
          <CharString index="246">
            -81 callsubr
            453 hlineto
            -144 -30 89 -107 164 hhcurveto
            108 79 51 62 45 hvcurveto
            -40 -225 256 callgsubr
            return
          </CharString>
          <CharString index="247">
            224 callsubr
            endchar
          </CharString>
          <CharString index="248">
            138 79 70 94 17 hvcurveto
            123 22 -94 46 -103 hhcurveto
            -45 hlineto
            -62 -53 24 69 12 hvcurveto
            77 14 76 16 62 hhcurveto
            return
          </CharString>
          <CharString index="249">
            149 callgsubr
            268 -268 rlineto
            -2 -1 -2 -1 -2 vhcurveto
            -46 -24 -51 -56 -91 hhcurveto
            return
          </CharString>
          <CharString index="250">
            -64 -53 24 68 12 hvcurveto
            78 14 return
          </CharString>
          <CharString index="251">
            hvcurveto
            24 140 rlineto
            return
          </CharString>
          <CharString index="252">
            hlineto
            -18 -98 rlineto
            -108 -20 -74 -69 -116 hhcurveto
            -98 hlineto
            -36 -205 rlineto
            -125 -21 55 -90 117 hhcurveto
            117 55 89 115 14 hvcurveto
            -56 hlineto
            -83 -12 -33 -66 -79 hhcurveto
            -80 -31 65 92 14 hvcurveto
            29 162 rlineto
            return
          </CharString>
          <CharString index="253">
            hhcurveto
            19 callsubr
            return
          </CharString>
          <CharString index="254">
            179 callgsubr
            11 64 -20 49 -33 29 rrcurveto
            return
          </CharString>
          <CharString index="255">
            hlineto
            162 callgsubr
            return
          </CharString>
          <CharString index="256">
            hlineto
            214 callsubr
            -103 hlineto
            return
          </CharString>
          <CharString index="257">
            189 callsubr
            64 hlineto
            return
          </CharString>
          <CharString index="258">
            8 392 170 rmoveto
            -30 -170 rlineto
            69 hlineto
            30 170 rlineto
            107 hlineto
            11 61 rlineto
            -107 hlineto
            85 482 rlineto
            -83 hlineto
            -451 -490 -9 -53 rlineto
            392 61 rmoveto
            -300 hlineto
            371 405 rlineto
            endchar
          </CharString>
          <CharString index="259">
            -23 -25 -244 262 rcurveline
            33 41 52 18 53 hhcurveto
            26 23 -4 -7 20 hvcurveto
            7 46 rlineto
            8 -23 -27 3 -25 hhcurveto
            -138 -121 -90 -148 -27 hvcurveto
            -150 -26 102 -90 134 hhcurveto
            93 78 43 66 return
          </CharString>
          <CharString index="260">
            4 callsubr
            rrcurveto
            140 callgsubr
            64 hlineto
            120 686 rlineto
            return
          </CharString>
          <CharString index="261">
            -62 hlineto
            -88 -13 -51 -68 -85 hhcurveto
            -91 -33 65 92 15 hvcurveto
            26 145 rlineto
            return
          </CharString>
          <CharString index="262">
            23 callgsubr
            112 rcurveline
            return
          </CharString>
          <CharString index="263">
            162 rmoveto
            -99 -68 43 92 17 167 callsubr
            -34 46 84 14 hvcurveto
            15 82 rlineto
            369 hlineto
            -59 -334 rlineto
            -113 -26 -105 -77 -115 hhcurveto
            return
          </CharString>
          <CharString index="264">
            rmoveto
            -10 -56 rlineto
            194 hlineto
            -113 -643 rlineto
            70 hlineto
            113 643 rlineto
            195 264 callsubr
            return
          </CharString>
          <CharString index="265">
            141 callgsubr
            11 return
          </CharString>
          <CharString index="266">
            hlineto
            -32 -180 rlineto
            return
          </CharString>
          <CharString index="267">
            262 62 callgsubr
            return
          </CharString>
          <CharString index="268">
            hlineto
            -13 -75 -22 -121 -75 -41 -102 -4 rlinecurve
            40 -19 -47 37 -106 hhcurveto
            return
          </CharString>
          <CharString index="269">
            -66 -42 166 callsubr
            return
          </CharString>
          <CharString index="270">
            -95 callsubr
            -710 hlineto
            endchar
          </CharString>
          <CharString index="271">
            174 rmoveto
            -103 callgsubr
            return
          </CharString>
          <CharString index="272">
            308 293 callgsubr
            341 callsubr
            rrcurveto
            return
          </CharString>
          <CharString index="273">
            227 callsubr
            60 44 return
          </CharString>
          <CharString index="274">
            hvcurveto
            69 12 56 55 115 hhcurveto
            54 hlineto
            9 53 rlineto
            -49 hlineto
            -106 return
          </CharString>
          <CharString index="275">
            hlineto
            235 callgsubr
            return
          </CharString>
          <CharString index="276">
            -11 -14 callgsubr
            return
          </CharString>
          <CharString index="277">
            rmoveto
            58 hlineto
            121 -60 callsubr
            -202 hlineto
            -51 -286 rlineto
            -198 hlineto
            15 88 rlineto
            124 22 -36 83 -115 369 callgsubr
            return
          </CharString>
          <CharString index="278">
            rmoveto
            -105 -67 -15 callsubr
            95 68 101 hhcurveto
            127 38 -96 -86 -16 hvcurveto
            return
          </CharString>
          <CharString index="279">
            -139 -24 hvcurveto
            return
          </CharString>
          <CharString index="280">
            rrcurveto
            176 callgsubr
          </CharString>
          <CharString index="281">
            60 73 97 hhcurveto
            return
          </CharString>
          <CharString index="282">
            153 callgsubr
            181 hlineto
            -67 -33 -56 -66 -17 -104 rrcurveto
            -152 -26 94 -88 151 hhcurveto
            29 168 callsubr
            -127 -63 69 118 19 hvcurveto
            146 return
          </CharString>
          <CharString index="283">
            rmoveto
            369 callsubr
            43 244 182 -244 rlineto
            95 hlineto
            -213 273 307 273 rlineto
            -97 hlineto
            -264 -244 78 438 rlineto
            endchar
          </CharString>
          <CharString index="284">
            hvcurveto
            -141 hlineto
            -10 116 callsubr
            return
          </CharString>
          <CharString index="285">
            -84 -47 54 78 15 293 callsubr
            79 48 -56 return
          </CharString>
          <CharString index="286">
            hhcurveto
            108 73 70 132 24 151 callgsubr
            return
          </CharString>
          <CharString index="287">
            rcurveline
            -30 -36 -47 -20 -58 hhcurveto
            return
          </CharString>
          <CharString index="288">
            hlineto
            -4 -14 -4 -16 -2 -14 return
          </CharString>
          <CharString index="289">
            -37 274 callsubr
            return
          </CharString>
          <CharString index="290">
            99 562 rlineto
            -55 hlineto
            -93 -22 -86 -40 -69 hhcurveto
            -91 -49 55 80 15 hvcurveto
            93 18 78 51 114 hhcurveto
            149 hlineto
            30 172 rlineto
            153 hlineto
            8 54 rlineto
            return
          </CharString>
          <CharString index="291">
            -165 -29 111 -112 167 hhcurveto
            return
          </CharString>
          <CharString index="292" raw="1">
            3c0afb21 0b  
          </CharString>
          <CharString index="293">
            hhcurveto
            117 71 80 121 181 callgsubr
            5 rrcurveto
            -62 hlineto
            -3 -14 rlineto
            -86 -15 -53 -58 -79 hhcurveto
            -88 86 callgsubr
            27 158 rlineto
            return
          </CharString>
          <CharString index="294">
            -62 callgsubr
            -635 hlineto
            return
          </CharString>
          <CharString index="295">
            84 callsubr
            59 -19 42 -33 25 return
          </CharString>
          <CharString index="296">
            hlineto
            -70 -398 rlineto
            return
          </CharString>
          <CharString index="297">
            344 199 callsubr
            return
          </CharString>
          <CharString index="298">
            rlineto
            121 callsubr
            return
          </CharString>
          <CharString index="299">
            rlineto
            41 callsubr
            return
          </CharString>
          <CharString index="300">
            39 hvcurveto
            -52 -299 rlineto
            return
          </CharString>
          <CharString index="301">
            rmoveto
            18 98 rlineto
            return
          </CharString>
          <CharString index="302">
            66 callsubr
            108 85 66 81 36 hvcurveto
            3 hlineto
            return
          </CharString>
          <CharString index="303">
            hhcurveto
            110 79 13 callsubr
            219 callgsubr
            return
          </CharString>
          <CharString index="304">
            -234 -2 -13 -2 -12 -1 -12 rlinecurve
            -271 -28 callsubr
            rrcurveto
            return
          </CharString>
          <CharString index="305">
            68 100 hhcurveto
            129 38 -96 -87 -16 hvcurveto
            -79 return
          </CharString>
          <CharString index="306">
            84 rmoveto
            -148 -98 58 349 callgsubr
            75 13 64 63 118 hhcurveto
            22 hlineto
            9 53 rlineto
            -23 hlineto
            -104 -33 46 84 15 hvcurveto
            20 112 rlineto
            return
          </CharString>
          <CharString index="307">
            rmoveto
            126 102 77 121 22 hvcurveto
            -66 hlineto
            -85 -16 -67 -53 -91 hhcurveto
            -90 -50 55 89 15 hvcurveto
            137 25 110 22 115 hhcurveto
            25 hlineto
            return
          </CharString>
          <CharString index="308">
            81 hlineto
            13 76 rlineto
            -46 hlineto
            5 25 rlineto
            33 6 16 18 33 hhcurveto
            7 36 rlineto
            -58 -38 -29 -74 -14 hvcurveto
            -4 -24 -2 -28 1 -33 rrcurveto
            endchar
          </CharString>
          <CharString index="309">
            308 callsubr
            -120 -686 rlineto
            64 hlineto
            endchar
          </CharString>
          <CharString index="310">
            82 -114 hhcurveto
            -111 -83 -71 -96 -16 hvcurveto
            -17 -91 43 -71 87 -56 -240 -163 rcurveline
            -1 -8 rlineto
            74 hlineto
            212 144 157 return
          </CharString>
          <CharString index="311">
            367 hlineto
            -37 -210 rlineto
            -104 hlineto
            -107 -89 -61 -108 -19 hvcurveto
            -100 -17 62 -68 103 hhcurveto
            108 74 72 129 23 hvcurveto
            15 84 rlineto
            return
          </CharString>
          <CharString index="312">
            rmoveto
            -25 -134 -98 -9 -88 -51 -50 -83 rlinecurve
            -281 277 2 callgsubr
            return
          </CharString>
          <CharString index="313">
            -52 rmoveto
            -79 hlineto
            -12 300 callgsubr
            -7 -16 -20 -33 hhcurveto
            return
          </CharString>
          <CharString index="314">
            209 callgsubr
            123 callsubr
            return
          </CharString>
          <CharString index="315">
            hvcurveto
            105 callgsubr
            return
          </CharString>
          <CharString index="316">
            -110 263 callsubr
            return
          </CharString>
          <CharString index="317">
            159 callsubr
            -336 hlineto
            return
          </CharString>
          <CharString index="318">
            63 hlineto
            327 callsubr
            return
          </CharString>
          <CharString index="319">
            20 callsubr
            63 hlineto
            58 327 rlineto
            -1 vlineto
            88 15 65 97 119 hhcurveto
            90 60 -66 -106 -18 hvcurveto
            return
          </CharString>
          <CharString index="320">
            -39 12 -125 hhcurveto
            -39 hlineto
            -7 -44 rlineto
            40 hlineto
            90 43 -7 -187 70 hvcurveto
            87 -87 -37 3 -100 hhcurveto
            -38 hlineto
            -8 -43 rlineto
            39 hlineto
            return
          </CharString>
          <CharString index="321">
            -41 -235 rlineto
            return
          </CharString>
          <CharString index="322">
            rlineto
            232 callgsubr
            return
          </CharString>
          <CharString index="323">
            rmoveto
            71 hlineto
            130 175 -68 175 rlineto
            -71 hlineto
            71 -175 rlineto
            return
          </CharString>
          <CharString index="324">
            -42 1 callsubr
            return
          </CharString>
          <CharString index="325">
            -38 hlineto
            -9 -53 rlineto
            38 hlineto
            return
          </CharString>
          <CharString index="326">
            194 callsubr
            213 hlineto
            return
          </CharString>
          <CharString index="327">
            hhcurveto
            -96 -33 69 92 return
          </CharString>
          <CharString index="328">
            -117 -21 hvcurveto
            return
          </CharString>
          <CharString index="329">
            hlineto
            -38 -218 rlineto
            65 -24 -56 42 -92 hhcurveto
            -141 -116 -100 -154 -27 hvcurveto
            64 hlineto
            122 21 93 77 113 hhcurveto
            return
          </CharString>
          <CharString index="330">
            rrcurveto
            136 callgsubr
            return
          </CharString>
          <CharString index="331">
            -131 -740 239 callsubr
            return
          </CharString>
          <CharString index="332">
            160 callgsubr
            -112 -20 -79 -32 -117 hhcurveto
            return
          </CharString>
          <CharString index="333">
            117 callgsubr
            34 hvcurveto
            return
          </CharString>
          <CharString index="334">
            373 callgsubr
            13 return
          </CharString>
          <CharString index="335">
            231 185 rmoveto
            -82 -47 54 328 callsubr
            65 -27 callgsubr
            -14 hvcurveto
            -78 -14 -72 -55 -75 hhcurveto
            return
          </CharString>
          <CharString index="336">
            rmoveto
            128 84 80 81 30 hvcurveto
            -62 hlineto
            -50 -22 -61 -56 -92 hhcurveto
            -108 -44 72 89 16 hvcurveto
            88 16 74 74 104 hhcurveto
            return
          </CharString>
          <CharString index="337">
            -15 -82 38 -62 66 -25 -59 -25 -52 -55 -12 -75 rrcurveto
            -106 -16 66 -73 103 hhcurveto
            67 62 31 53 40 hvcurveto
            -27 -151 rlineto
            return
          </CharString>
          <CharString index="338">
            32 34 45 -37 -209 rcurveline
            -1 hlineto
            -4 -22 -9 -24 -15 -21 -209 157 rcurveline
            28 21 36 13 41 3 rrcurveto
            endchar
          </CharString>
          <CharString index="339">
            hlineto
            -32 -180 rlineto
            -336 8 callgsubr
            return
          </CharString>
          <CharString index="340">
            108 hhcurveto
            150 131 111 171 30 hvcurveto
            171 30 return
          </CharString>
          <CharString index="341">
            hlineto
            -167 -132 return
          </CharString>
          <CharString index="342">
            -41 -234 rlineto
            return
          </CharString>
          <CharString index="343">
            383 callgsubr
            -112 -19 -75 -58 -115 hhcurveto
            -108 hlineto
            -34 -203 rlineto
            -126 -22 return
          </CharString>
          <CharString index="344">
            195 193 rmoveto
            -67 -41 126 callgsubr
            71 13 59 45 74 hhcurveto
            103 hlineto
            -15 -87 rlineto
            -91 -17 -50 -53 -72 hhcurveto
            return
          </CharString>
          <CharString index="345">
            270 callsubr
            71 return
          </CharString>
          <CharString index="346">
            rlineto
            70 hlineto
            131 740 rlineto
            return
          </CharString>
          <CharString index="347">
            79 rmoveto
            -59 callsubr
            return
          </CharString>
          <CharString index="348">
            62 callgsubr
            -46 -262 2 callgsubr
            -88 -15 -65 -74 -96 hhcurveto
            return
          </CharString>
          <CharString index="349">
            rmoveto
            27 23 20 26 5 hvcurveto
            26 5 -17 21 -26 hhcurveto
            -27 -24 -21 -26 -4 hvcurveto
            -26 -5 16 -20 27 hhcurveto
            endchar
          </CharString>
          <CharString index="350">
            rmoveto
            -28 -26 -23 -29 -6 hvcurveto
            -29 -5 18 -22 29 hhcurveto
            28 27 22 29 5 hvcurveto
            29 5 -18 23 -29 hhcurveto
            endchar
          </CharString>
          <CharString index="351">
            hhcurveto
            218 callsubr
            101 33 -12 -175 81 hvcurveto
            return
          </CharString>
          <CharString index="352">
            -184 -162 326 callsubr
            return
          </CharString>
          <CharString index="353">
            247 callgsubr
            -64 hlineto
            return
          </CharString>
          <CharString index="354">
            -76 78 137 25 hvcurveto
            -1 return
          </CharString>
          <CharString index="355">
            68 35 52 37 hvcurveto
            return
          </CharString>
          <CharString index="356">
            -5 rmoveto
            -48 callsubr
            return
          </CharString>
          <CharString index="357">
            -97 callgsubr
            40 callgsubr
            -74 -29 -76 96 callsubr
            -146 return
          </CharString>
          <CharString index="358">
            109 20 -55 128 -171 hhcurveto
            -142 -116 -89 -138 -24 hvcurveto
            -145 -26 90 -94 144 hhcurveto
            return
          </CharString>
          <CharString index="359">
            102 callsubr
            -45 -17 -90 rrcurveto
            -112 -20 88 -63 385 callsubr
          </CharString>
          <CharString index="360">
            rrcurveto
            4 callgsubr
            197 189 callsubr
            return
          </CharString>
          <CharString index="361">
            -174 226 callgsubr
            return
          </CharString>
          <CharString index="362">
            -145 133 callgsubr
            return
          </CharString>
          <CharString index="363">
            530 33 callgsubr
            return
          </CharString>
          <CharString index="364">
            -108 -18 hvcurveto
            return
          </CharString>
          <CharString index="365">
            hvcurveto
            -2 -15 rlineto
            54 hlineto
            3 15 rlineto
            120 16 67 80 98 hhcurveto
            92 33 -76 -93 -17 hvcurveto
            -4 -22 return
          </CharString>
          <CharString index="366">
            -75 89 -119 hhcurveto
            -97 -69 -51 -64 -38 hvcurveto
            41 235 rlineto
            393 -100 callsubr
            -941 hlineto
            return
          </CharString>
          <CharString index="367">
            rmoveto
            -74 -37 55 79 14 hvcurveto
            41 231 rlineto
            240 hlineto
            -41 -231 rlineto
            -79 -14 -53 -55 -76 hhcurveto
            return
          </CharString>
          <CharString index="368">
            hvcurveto
            -141 hlineto
            -10 271 callsubr
            return
          </CharString>
          <CharString index="369">
            -150 -131 -109 -171 -30 hvcurveto
            return
          </CharString>
          <CharString index="370">
            -19 294 callsubr
            return
          </CharString>
          <CharString index="371">
            hlineto
            10 56 rlineto
            return
          </CharString>
          <CharString index="372">
            8 1 1 11 hvcurveto
            10 57 rlineto
            -1 -10 -9 353 callsubr
            return
          </CharString>
          <CharString index="373">
            -162 -28 98 -80 278 callsubr
            -61 65 122 23 hvcurveto
            return
          </CharString>
          <CharString index="374">
            hhcurveto
            -123 -93 -88 172 callsubr
            -139 -24 60 -103 154 hhcurveto
            10 11 1 1 13 hvcurveto
            return
          </CharString>
          <CharString index="375">
            377 callgsubr
            -131 -23 return
          </CharString>
          <CharString index="376">
            301 callsubr
            -73 -78 return
          </CharString>
          <CharString index="377">
            -80 281 callsubr
            return
          </CharString>
          <CharString index="378">
            -54 rlineto
            141 hlineto
            return
          </CharString>
          <CharString index="379">
            hlineto
            -15 -88 rlineto
            return
          </CharString>
          <CharString index="380">
            198 callgsubr
            endchar
          </CharString>
          <CharString index="381">
            82 -110 hhcurveto
            return
          </CharString>
          <CharString index="382">
            rmoveto
            39 callsubr
            -16 -61 -63 -84 220 callsubr
            return
          </CharString>
          <CharString index="383">
            -20 -32 hhcurveto
            -7 300 callsubr
            return
          </CharString>
          <CharString index="384">
            70 -80 116 hhcurveto
            106 93 71 110 20 hvcurveto
            return
          </CharString>
          <CharString index="385">
            151 308 callgsubr
            return
          </CharString>
          <CharString index="386">
            224 185 rmoveto
            -67 -41 46 69 12 hvcurveto
            62 return
          </CharString>
          <CharString index="387">
            -26 -21 -30 -5 hvcurveto
            -30 -5 18 -22 return
          </CharString>
          <CharString index="388">
            116 hhcurveto
            108 91 return
          </CharString>
          <CharString index="389">
            -3 -6 -19 hvcurveto
            return
          </CharString>
          <CharString index="390">
            -60 -81 callsubr
            return
          </CharString>
          <CharString index="391">
            -110 rlineto
            -143 -114 -58 -151 -27 hvcurveto
            -124 -22 76 -80 128 hhcurveto
            return
          </CharString>
          <CharString index="392">
            5 callgsubr
            -70 -65 -26 -45 -48 hvcurveto
            -163 hlineto
            return
          </CharString>
          <CharString index="393">
            -76 -94 -16 hvcurveto
            return
          </CharString>
          <CharString index="394">
            -44 -76 -12 hvcurveto
            -1 -8 -1 -11 -8 vvcurveto
            46 hlineto
            -1 5 1 8 1 6 rrcurveto
            return
          </CharString>
          <CharString index="395">
            rmoveto
            445 93 callsubr
            return
          </CharString>
          <CharString index="396">
            hlineto
            -7 -17 -5 -18 -3 -19 rrcurveto
            -149 -27 return
          </CharString>
          <CharString index="397">
            -34 -110 hhcurveto
            -265 hlineto
            -23 -134 rlineto
            return
          </CharString>
          <CharString index="398">
            hvcurveto
            -17 -3 10 -13 18 hhcurveto
            endchar
          </CharString>
          <CharString index="399">
            -70 248 callgsubr
            return
          </CharString>
          <CharString index="400">
            hvcurveto
            80 14 67 55 82 hhcurveto
            return
          </CharString>
          <CharString index="401">
            71 -80 116 hhcurveto
            return
          </CharString>
          <CharString index="402">
            2 callgsubr
            23 return
          </CharString>
          <CharString index="403">
            56 102 18 hvcurveto
            337 callgsubr
            return
          </CharString>
          <CharString index="404">
            58 callsubr
            -22 -20 282 callsubr
            return
          </CharString>
          <CharString index="405">
            15 81 rlineto
            61 11 34 39 51 hhcurveto
            48 23 -33 -56 -13 hvcurveto
            57 hlineto
            91 return
          </CharString>
          <CharString index="406">
            323 callgsubr
            endchar
          </CharString>
          <CharString index="407">
            -35 rlineto
            56 39 29 78 14 hvcurveto
            return
          </CharString>
          <CharString index="408">
            286 callsubr
            -107 -19 return
          </CharString>
          <CharString index="409">
            14 hvcurveto
            80 15 return
          </CharString>
          <CharString index="410">
            hhcurveto
            -6 -38 rlineto
            61 42 34 80 14 hvcurveto
            4 22 1 25 -1 28 rrcurveto
            return
          </CharString>
          <CharString index="411">
            46 67 hhcurveto
            58 29 -44 -61 -12 hvcurveto
            57 hlineto
            94 19 -46 65 -97 hhcurveto
            return
          </CharString>
          <CharString index="412">
            -131 -109 -171 -30 hvcurveto
            -171 -30 92 -111 150 hhcurveto
            return
          </CharString>
          <CharString index="413">
            hlineto
            -15 186 callgsubr
            return
          </CharString>
          <CharString index="414">
            131 callsubr
            -93 -76 return
          </CharString>
          <CharString index="415">
            hvcurveto
            319 callsubr
            return
          </CharString>
          <CharString index="416">
            hlineto
            -19 -111 rlineto
            return
          </CharString>
          <CharString index="417">
            -115 -27 -102 hhcurveto
            return
          </CharString>
          <CharString index="418">
            -686 rlineto
            63 hlineto
            return
          </CharString>
          <CharString index="419">
            rlineto
            -143 hlineto
            return
          </CharString>
          <CharString index="420">
            -42 -9 -38 hhcurveto
            -58 -47 21 59 11 hvcurveto
            63 11 54 19 52 hhcurveto
            return
          </CharString>
          <CharString index="421">
            24 -75 89 -119 hhcurveto
            -97 -68 -50 -64 -39 hvcurveto
            41 234 rlineto
            return
          </CharString>
          <CharString index="422">
            hhcurveto
            10 8 1 1 11 hvcurveto
            11 57 rlineto
            -1 -11 -9 -1 -9 hhcurveto
            return
          </CharString>
          <CharString index="423">
            -41 -232 rlineto
            return
          </CharString>
          <CharString index="424">
            70 53 38 60 11 hvcurveto
            11 62 -44 33 -79 -2 11 60 rcurveline
            return
          </CharString>
          <CharString index="425">
            23 61 hhcurveto
            186 hlineto
            7 40 2 callgsubr
            24 137 rlineto
            return
          </CharString>
          <CharString index="426">
            -142 hlineto
            -10 271 callsubr
            return
          </CharString>
          <CharString index="427">
            15 -126 hhcurveto
            -38 hlineto
            -9 -53 rlineto
            return
          </CharString>
          <CharString index="428">
            375 callsubr
            -38 -217 rlineto
            return
          </CharString>
          <CharString index="429">
            160 115 105 154 26 hvcurveto
            return
          </CharString>
          <CharString index="430">
            rrcurveto
            -149 -27 85 -91 133 hhcurveto
            return
          </CharString>
          <CharString index="431">
            210 329 callsubr
            return
          </CharString>
          <CharString index="432">
            60 350 rmoveto
            -210 -37 return
          </CharString>
          <CharString index="433">
            rcurveline
            72 hlineto
            174 154 return
          </CharString>
          <CharString index="434">
            55 319 rlineto
            -58 hlineto
            return
          </CharString>
          <CharString index="435">
            78 302 callsubr
            return
          </CharString>
          <CharString index="436">
            hlineto
            -79 -447 rlineto
            return
          </CharString>
          <CharString index="437" raw="1">
            1f8e8c8f 8c0b  
          </CharString>
          <CharString index="438">
            hlineto
            9 51 rlineto
            return
          </CharString>
          <CharString index="439">
            68 55 82 hhcurveto
            79 48 -56 -78 -15 hvcurveto
            -75 -14 -66 -58 return
          </CharString>
          <CharString index="440">
            226 699 rmoveto
            -51 hlineto
            -126 -216 rlineto
            81 hlineto
            return
          </CharString>
          <CharString index="441">
            rlineto
            63 hlineto
            121 -60 callsubr
            return
          </CharString>
          <CharString index="442">
            hmoveto
            63 116 callgsubr
            return
          </CharString>
          <CharString index="443">
            344 callgsubr
            -29 -167 rlineto
            -82 -15 return
          </CharString>
          <CharString index="444">
            75 rmoveto
            -86 hlineto
            -14 -76 rlineto
            47 hlineto
            -2 -15 rlineto
            -39 -7 return
          </CharString>
          <CharString index="445">
            362 callsubr
            -18 70 return
          </CharString>
          <CharString index="446">
            -10 -1 -9 hhcurveto
            -114 -45 77 109 19 hvcurveto
            97 return
          </CharString>
          <CharString index="447">
            hhcurveto
            49 27 -35 -51 -11 hvcurveto
            55 hlineto
            81 19 -40 56 return
          </CharString>
          <CharString index="448">
            -84 103 callgsubr
            return
          </CharString>
          <CharString index="449">
            rmoveto
            -112 -37 84 94 19 hvcurveto
            2 1 2 2 vvcurveto
            return
          </CharString>
          <CharString index="450">
            156 callgsubr
            28 160 rlineto
            return
          </CharString>
          <CharString index="451">
            -149 -26 100 -104 154 hhcurveto
            return
          </CharString>
          <CharString index="452">
            90 73 63 33 hvcurveto
            endchar
          </CharString>
          <CharString index="453">
            hvcurveto
            11 64 -20 49 return
          </CharString>
          <CharString index="454">
            -78 -439 rlineto
            return
          </CharString>
          <CharString index="455">
            hvcurveto
            -114 -20 return
          </CharString>
          <CharString index="456">
            hlineto
            129 28 return
          </CharString>
          <CharString index="457">
            94 198 callsubr
            return
          </CharString>
          <CharString index="458">
            161 740 rmoveto
            369 callsubr
            return
          </CharString>
          <CharString index="459">
            -10 -2 -11 rrcurveto
            -137 -23 65 -87 134 hhcurveto
            return
          </CharString>
          <CharString index="460">
            86 callsubr
            -44 85 callsubr
            17 return
          </CharString>
          <CharString index="461">
            81 86 16 hvcurveto
            -53 hlineto
            -57 -10 -55 -62 -97 hhcurveto
            return
          </CharString>
          <CharString index="462">
            39 29 78 14 hvcurveto
            3 19 2 24 -2 24 rrcurveto
            return
          </CharString>
          <CharString index="463">
            hhcurveto
            322 callsubr
            endchar
          </CharString>
          <CharString index="464">
            -55 375 callgsubr
            return
          </CharString>
          <CharString index="465">
            -69 56 102 18 hvcurveto
            93 return
          </CharString>
          <CharString index="466">
            83 -115 hhcurveto
            return
          </CharString>
          <CharString index="467">
            hlineto
            10 55 rlineto
            return
          </CharString>
          <CharString index="468">
            -171 -30 92 -111 150 hhcurveto
            108 return
          </CharString>
          <CharString index="469">
            215 callgsubr
            374 callsubr
            -110 return
          </CharString>
          <CharString index="470">
            hlineto
            -84 -214 rlineto
            67 hlineto
            84 214 rlineto
            return
          </CharString>
          <CharString index="471">
            hlineto
            -89 -73 -36 -81 -14 hvcurveto
            return
          </CharString>
          <CharString index="472">
            rmoveto
            18 15 13 17 4 hvcurveto
            return
          </CharString>
          <CharString index="473">
            hlineto
            -29 -167 rlineto
            -82 -15 return
          </CharString>
          <CharString index="474">
            71 -3 182 callsubr
            return
          </CharString>
          <CharString index="475">
            -198 123 callgsubr
            return
          </CharString>
          <CharString index="476">
            -131 -740 rlineto
            70 hlineto
            return
          </CharString>
          <CharString index="477">
            hvcurveto
            41 233 rlineto
            return
          </CharString>
          <CharString index="478">
            592 686 rmoveto
            return
          </CharString>
          <CharString index="479">
            hhcurveto
            106 21 -45 -28 return
          </CharString>
          <CharString index="480">
            163 hhcurveto
            110 return
          </CharString>
          <CharString index="481">
            -68 361 callgsubr
            return
          </CharString>
          <CharString index="482">
            73 48 65 42 hvcurveto
            return
          </CharString>
          <CharString index="483">
            hlineto
            11 62 rlineto
            return
          </CharString>
          <CharString index="484">
            hlineto
            -39 -41 -22 -59 -1 -66 rrcurveto
            59 hlineto
            return
          </CharString>
          <CharString index="485">
            44 8 9 24 hvcurveto
            9 50 rlineto
            -7 -20 return
          </CharString>
          <CharString index="486">
            104 callgsubr
            -79 return
          </CharString>
          <CharString index="487">
            hhcurveto
            79 49 -56 -92 -16 hvcurveto
            -109 -19 return
          </CharString>
          <CharString index="488">
            -128 -23 371 callgsubr
            -16 hlineto
            return
          </CharString>
          <CharString index="489">
            -16 rlineto
            63 hlineto
            3 17 rlineto
            176 31 return
          </CharString>
          <CharString index="490">
            -101 -17 61 -69 return
          </CharString>
          <CharString index="491">
            -61 -344 rlineto
            return
          </CharString>
          <CharString index="492">
            116 hhcurveto
            endchar
          </CharString>
        <CharString name=".notdef">
          -105 0 vmoveto
          500 700 -500 hlineto
          250 -305 rmoveto
          -170 255 rlineto
          340 hlineto
          -140 -300 rmoveto
          170 255 rlineto
          -510 vlineto
          -370 -45 rmoveto
          170 255 170 -255 rlineto
          -370 555 rmoveto
          170 -255 -170 -255 rlineto
          endchar
        </CharString>
        <CharString name="A">
          -18 callsubr
          -11 56 114 callsubr
        </CharString>
        <CharString name="AE">
          277 522 640 117 callsubr
        </CharString>
        <CharString name="Aacute">
          -18 callsubr
          65 748 -52 callgsubr
          -65 -629 114 callsubr
        </CharString>
        <CharString name="Abreve">
          -18 callsubr
          102 712 -77 callsubr
          -113 -656 114 callsubr
        </CharString>
        <CharString name="Acircumflex">
          -18 callsubr
          78 585 rmoveto
          10 57 -119 82 -149 -82 -10 -57 149 84 rlineto
          30 -613 114 callsubr
        </CharString>
        <CharString name="Adieresis">
          -18 callsubr
          -129 601 -90 callsubr
          -36 -545 114 callsubr
        </CharString>
        <CharString name="Agrave">
          -18 callsubr
          -140 748 rmoveto
          -11 -63 184 -119 -20 callsubr
          -53 -564 114 callsubr
        </CharString>
        <CharString name="Amacron">
          -18 callsubr
          -209 678 rmoveto
          -68 callsubr
          340 -64 callgsubr
          -141 -622 114 callsubr
        </CharString>
        <CharString name="Aogonek">
          47 438 690 rmoveto
          -79 hlineto
          -377 -690 rlineto
          74 hlineto
          90 166 rlineto
          319 hlineto
          28 -149 -80 -33 -36 -48 -8 -45 rlinecurve
          -67 -11 51 -25 57 hhcurveto
          25 26 5 8 24 hvcurveto
          9 49 rlineto
          -9 -24 -24 -5 -20 hhcurveto
          -36 -22 18 33 6 hvcurveto
          5 26 19 24 52 23 64 29 rcurveline
          -116 222 114 callsubr
        </CharString>
        <CharString name="Aring">
          -18 callsubr
          23 688 rmoveto
          -37 -6 -31 -24 -34 hhcurveto
          -34 -22 24 37 7 hvcurveto
          38 7 29 23 34 hhcurveto
          34 23 -23 -38 -7 hvcurveto
          -161 hmoveto
          -62 -11 39 -38 55 hhcurveto
          55 52 38 62 11 hvcurveto
          62 11 -38 38 -55 hhcurveto
          -55 -52 -38 -62 -12 hvcurveto
          127 -632 114 callsubr
        </CharString>
        <CharString name="Atilde">
          -18 callsubr
          -188 584 -88 callsubr
          177 -528 114 callsubr
        </CharString>
        <CharString name="B">
          -8 462 194 rmoveto
          -86 -15 -69 -51 -101 hhcurveto
          -167 hlineto
          48 275 rlineto
          164 hlineto
          101 55 -54 -84 -16 hvcurveto
          40 322 rmoveto
          -78 -14 -61 -49 -95 hhcurveto
          -163 hlineto
          44 254 rlineto
          160 hlineto
          101 41 -51 -76 -13 hvcurveto
          29 -329 rmoveto
          15 88 -49 72 -76 14 71 19 66 51 16 92 rrcurveto
          98 18 -56 78 -147 hhcurveto
          -236 248 callgsubr
          242 hlineto
          147 94 82 105 18 hvcurveto
          endchar
        </CharString>
        <CharString name="C">
          -39 callgsubr
          endchar
        </CharString>
        <CharString name="CR">
          -310 endchar
        </CharString>
        <CharString name="Cacute">
          -39 callgsubr
          541 564 -52 callgsubr
          endchar
        </CharString>
        <CharString name="Ccaron">
          -39 callgsubr
          578 539 -31 callsubr
        </CharString>
        <CharString name="Ccedilla">
          166 60 350 rmoveto
          -36 -205 115 -144 186 -7 -19 -106 rcurveline
          70 callgsubr
          12 62 rcurveline
          140 11 115 76 69 122 rrcurveto
          -83 hlineto
          -89 -54 -93 -58 -119 hhcurveto
          -153 -97 113 180 32 hvcurveto
          181 32 137 113 153 hhcurveto
          119 72 -58 -91 23 hvcurveto
          82 hlineto
          134 -27 -102 78 -156 hhcurveto
          -194 -174 -147 -210 -37 hvcurveto
          endchar
        </CharString>
        <CharString name="Cdotaccent">
          -39 callgsubr
          422 407 -41 callsubr
        </CharString>
        <CharString name="D">
          108 callgsubr
          endchar
        </CharString>
        <CharString name="Dcaron">
          108 callgsubr
          341 834 -31 callsubr
        </CharString>
        <CharString name="Dcroat">
          64 callsubr
        </CharString>
        <CharString name="E">
          -72 callsubr
          endchar
        </CharString>
        <CharString name="Eacute">
          -72 callsubr
          239 270 -52 callgsubr
          endchar
        </CharString>
        <CharString name="Ebreve">
          -72 callsubr
          276 234 -77 callsubr
          endchar
        </CharString>
        <CharString name="Ecaron">
          -72 callsubr
          276 245 -31 callsubr
        </CharString>
        <CharString name="Ecircumflex">
          -72 callsubr
          252 107 -11 callgsubr
        </CharString>
        <CharString name="Edieresis">
          -72 callsubr
          45 123 -90 callsubr
          endchar
        </CharString>
        <CharString name="Edotaccent">
          -72 callsubr
          120 113 -41 callsubr
        </CharString>
        <CharString name="Egrave">
          -72 callsubr
          34 270 47 callgsubr
        </CharString>
        <CharString name="Emacron">
          -72 callsubr
          -35 200 90 callgsubr
        </CharString>
        <CharString name="Eogonek">
          -102 508 644 rmoveto
          11 56 rlineto
          -366 hlineto
          -123 -700 rlineto
          263 hlineto
          -64 -33 -28 -37 -7 -39 rrcurveto
          -12 callgsubr
          64 29 rcurveline
          10 56 rlineto
          -295 hlineto
          47 268 rlineto
          266 hlineto
          9 56 317 callgsubr
          46 264 rlineto
          endchar
        </CharString>
        <CharString name="Eth">
          64 callsubr
        </CharString>
        <CharString name="Euro">
          213 124 350 rmoveto
          -4 -21 -2 -20 -20 vvcurveto
          -94 hlineto
          -9 -50 rlineto
          104 hlineto
          -149 16 110 -96 158 hhcurveto
          156 129 78 132 74 hvcurveto
          -82 hlineto
          -89 -55 -92 -58 -119 hhcurveto
          -118 -85 68 114 -18 hvcurveto
          255 hlineto
          8 50 rlineto
          -266 hlineto
          20 2 20 4 21 vhcurveto
          3 18 4 17 6 17 rrcurveto
          268 hlineto
          8 50 rlineto
          -257 hlineto
          120 57 111 72 122 hhcurveto
          119 71 -58 -91 24 hvcurveto
          82 hlineto
          134 -27 -102 78 -156 hhcurveto
          -161 -147 -101 -154 -66 hvcurveto
          -102 hlineto
          -9 -50 rlineto
          92 hlineto
          -5 -17 -4 -17 -3 -18 rrcurveto
          endchar
        </CharString>
        <CharString name="F">
          -112 153 699 rmoveto
          -123 -699 rlineto
          70 hlineto
          57 324 rlineto
          260 360 callsubr
          -260 hlineto
          46 264 rlineto
          309 264 callsubr
          endchar
        </CharString>
        <CharString name="G">
          177 60 350 -45 callgsubr
          endchar
        </CharString>
        <CharString name="Gbreve">
          177 60 350 -45 callgsubr
          578 528 -77 callsubr
          endchar
        </CharString>
        <CharString name="Gdotaccent">
          177 60 350 -45 callgsubr
          422 407 -41 callsubr
        </CharString>
        <CharString name="H">
          74 603 699 rmoveto
          -56 -315 rlineto
          -379 hlineto
          55 315 rlineto
          292 callsubr
          70 hlineto
          58 329 rlineto
          379 hlineto
          -58 -329 rlineto
          70 hlineto
          124 699 rlineto
          endchar
        </CharString>
        <CharString name="I">
          25 callsubr
          endchar
        </CharString>
        <CharString name="Iacute">
          25 callsubr
          95 215 -52 callgsubr
          endchar
        </CharString>
        <CharString name="Icircumflex">
          25 callsubr
          108 52 -11 callgsubr
        </CharString>
        <CharString name="Idieresis">
          25 callsubr
          -99 68 -90 callsubr
          endchar
        </CharString>
        <CharString name="Idotaccent">
          25 callsubr
          -24 58 -41 callsubr
        </CharString>
        <CharString name="Igrave">
          25 callsubr
          -110 215 47 callgsubr
        </CharString>
        <CharString name="Imacron">
          25 callsubr
          -179 145 90 callgsubr
        </CharString>
        <CharString name="Iogonek">
          -376 153 699 rmoveto
          -120 -682 -5 -2 -85 -36 -36 -42 -8 -45 rlinecurve
          -12 callgsubr
          62 28 rcurveline
          2 hlineto
          123 699 rlineto
          endchar
        </CharString>
        <CharString name="Itilde">
          25 callsubr
          -157 51 -88 callsubr
          endchar
        </CharString>
        <CharString name="J">
          -106 407 699 rmoveto
          -93 -529 rlineto
          -58 -11 -39 -57 -81 hhcurveto
          -83 -21 59 70 12 hvcurveto
          -71 hlineto
          -118 -21 60 -73 113 hhcurveto
          110 83 71 106 19 hvcurveto
          93 529 rlineto
          endchar
        </CharString>
        <CharString name="K">
          -37 527 699 rmoveto
          -362 -328 58 328 rlineto
          292 callsubr
          70 hlineto
          57 323 246 -323 rlineto
          92 hlineto
          -268 350 389 349 rlineto
          endchar
        </CharString>
        <CharString name="L">
          -184 223 699 rmoveto
          137 callsubr
          endchar
        </CharString>
        <CharString name="Lacute">
          -184 223 699 rmoveto
          137 callsubr
          306 859 -52 callgsubr
          endchar
        </CharString>
        <CharString name="Lcaron">
          -174 421 699 rmoveto
          -81 hlineto
          -13 -76 rlineto
          46 hlineto
          -5 -24 rlineto
          -34 -5 -17 -18 -33 hhcurveto
          -7 -36 rlineto
          58 38 30 73 13 hvcurveto
          5 24 2 28 -1 33 rrcurveto
          -198 hmoveto
          137 callsubr
          endchar
        </CharString>
        <CharString name="Ldot">
          -184 223 699 rmoveto
          137 callsubr
          187 702 -41 callsubr
        </CharString>
        <CharString name="Lslash">
          -175 239 699 rmoveto
          -70 hlineto
          -56 -313 -91 -34 -12 -66 92 34 -57 -320 rlineto
          321 hlineto
          11 55 rlineto
          -251 hlineto
          51 292 133 49 12 66 -133 -49 rlineto
          endchar
        </CharString>
        <CharString name="M">
          237 152 690 rmoveto
          -122 -690 rlineto
          70 hlineto
          96 549 150 -549 rlineto
          51 hlineto
          342 550 -97 -550 rlineto
          70 hlineto
          122 690 rlineto
          -74 hlineto
          -371 -598 -163 598 rlineto
          endchar
        </CharString>
        <CharString name="N">
          81 680 699 43 callsubr
          endchar
        </CharString>
        <CharString name="NULL">
          -605 endchar
        </CharString>
        <CharString name="Nacute">
          81 680 699 43 callsubr
          -10 914 -52 callgsubr
          endchar
        </CharString>
        <CharString name="Ncaron">
          81 680 699 43 callsubr
          27 889 -31 callsubr
        </CharString>
        <CharString name="Ntilde">
          81 680 699 43 callsubr
          -262 750 -88 callsubr
          endchar
        </CharString>
        <CharString name="O">
          -94 callgsubr
          endchar
        </CharString>
        <CharString name="OE">
          488 803 643 rmoveto
          296 264 callsubr
          -365 hlineto
          -30 -169 rlineto
          110 -27 -94 67 -128 hhcurveto
          -190 -177 -147 -210 -37 hvcurveto
          -210 -37 124 -147 192 hhcurveto
          127 118 66 112 66 hvcurveto
          -31 -171 rlineto
          365 hlineto
          11 56 rlineto
          -296 hlineto
          47 268 rlineto
          265 hlineto
          10 55 317 callgsubr
          -624 -29 rmoveto
          181 33 138 112 155 hhcurveto
          155 100 -112 -181 -33 hvcurveto
          -181 -31 -139 -113 -156 hhcurveto
          -155 -98 113 181 31 hvcurveto
          endchar
        </CharString>
        <CharString name="Oacute">
          -94 callgsubr
          246 862 -52 callgsubr
          endchar
        </CharString>
        <CharString name="Ocircumflex">
          -94 callgsubr
          259 699 -11 callgsubr
        </CharString>
        <CharString name="Odieresis">
          -94 callgsubr
          52 715 -90 callsubr
          endchar
        </CharString>
        <CharString name="Ograve">
          -94 callgsubr
          41 862 47 callgsubr
        </CharString>
        <CharString name="Ohungarumlaut">
          -94 callgsubr
          324 832 125 callsubr
        </CharString>
        <CharString name="Omacron">
          -94 callgsubr
          -28 792 90 callgsubr
        </CharString>
        <CharString name="Oslash">
          183 345 -7 rmoveto
          235 175 189 237 69 -18 60 -33 47 hvcurveto
          115 105 rlineto
          -59 hlineto
          -82 -75 rlineto
          52 -50 -73 30 -88 hhcurveto
          -235 -176 -190 -237 -68 18 -60 34 -47 hvcurveto
          -116 -105 rlineto
          60 hlineto
          81 74 rlineto
          -51 51 73 -30 88 hhcurveto
          -216 292 rmoveto
          191 134 167 193 71 59 -23 -43 40 vhcurveto
          -464 -422 rlineto
          -21 35 -12 44 51 vvcurveto
          226 -229 rmoveto
          -71 -59 24 42 -39 hvcurveto
          464 424 rlineto
          21 -36 12 -44 -51 vvcurveto
          -193 -136 -166 -192 vhcurveto
          endchar
        </CharString>
        <CharString name="Otilde">
          -94 callgsubr
          -7 698 -88 callsubr
          endchar
        </CharString>
        <CharString name="P">
          -41 304 356 rmoveto
          -141 hlineto
          50 287 366 callgsubr
          -55 -90 -16 hvcurveto
          -86 -15 -56 -56 -118 hhcurveto
          261 142 rmoveto
          115 20 -58 86 -163 hhcurveto
          -211 248 callgsubr
          70 hlineto
          52 298 rlineto
          141 hlineto
          165 87 87 113 20 hvcurveto
          endchar
        </CharString>
        <CharString name="Q">
          184 355 56 rmoveto
          -137 -89 87 142 191 134 167 193 137 90 -86 -142 -193 -136 -166 -192 hvcurveto
          -10 -63 rmoveto
          38 36 5 9 34 hvcurveto
          130 -144 rlineto
          94 hlineto
          -154 170 rlineto
          140 67 92 147 172 vvcurveto
          171 -113 117 -175 -235 -176 -190 -237 -170 114 -117 175 vhcurveto
          endchar
        </CharString>
        <CharString name="R">
          14 callgsubr
          endchar
        </CharString>
        <CharString name="Racute">
          14 callgsubr
          146 215 -52 callgsubr
          endchar
        </CharString>
        <CharString name="Rcaron">
          14 callgsubr
          183 190 -31 callsubr
        </CharString>
        <CharString name="S">
          -39 253 -7 rmoveto
          143 89 81 102 7 hvcurveto
          -43 callgsubr
          -109 -12 84 -78 137 hhcurveto
          endchar
        </CharString>
        <CharString name="Sacute">
          -39 253 -7 rmoveto
          143 89 81 102 7 hvcurveto
          -43 callgsubr
          -109 -12 84 -78 137 hhcurveto
          237 921 -52 callgsubr
          endchar
        </CharString>
        <CharString name="Scaron">
          -39 253 -7 rmoveto
          143 89 81 102 7 hvcurveto
          -43 callgsubr
          -109 -12 84 -78 137 hhcurveto
          274 896 -31 callsubr
        </CharString>
        <CharString name="T">
          -85 104 699 157 callsubr
          endchar
        </CharString>
        <CharString name="Tcaron">
          -85 104 699 157 callsubr
          -62 190 -31 callsubr
        </CharString>
        <CharString name="Thorn">
          -41 277 207 rmoveto
          -141 hlineto
          51 287 366 callgsubr
          -55 -89 -16 hvcurveto
          -86 -15 -57 -57 -118 hhcurveto
          262 143 rmoveto
          115 20 -58 86 -163 hhcurveto
          -141 hlineto
          26 149 rlineto
          -70 hlineto
          -123 -700 rlineto
          70 hlineto
          26 150 rlineto
          141 hlineto
          165 87 86 114 20 hvcurveto
          endchar
        </CharString>
        <CharString name="U">
          -89 callgsubr
          endchar
        </CharString>
        <CharString name="Uacute">
          -89 callgsubr
          313 215 -52 callgsubr
          endchar
        </CharString>
        <CharString name="Ubreve">
          -89 callgsubr
          350 179 -77 callsubr
          endchar
        </CharString>
        <CharString name="Ucircumflex">
          -89 callgsubr
          326 52 -11 callgsubr
        </CharString>
        <CharString name="Udieresis">
          -89 callgsubr
          119 68 -90 callsubr
          endchar
        </CharString>
        <CharString name="Ugrave">
          -89 callgsubr
          108 215 47 callgsubr
        </CharString>
        <CharString name="Uhungarumlaut">
          -89 callgsubr
          391 185 125 callsubr
        </CharString>
        <CharString name="Umacron">
          -89 callgsubr
          39 145 90 callgsubr
        </CharString>
        <CharString name="Uogonek">
          56 151 699 rmoveto
          -78 -439 -30 -166 77 -83 119 -15 rlinecurve
          -58 -32 -26 -35 -7 -38 rrcurveto
          -12 callgsubr
          63 29 rcurveline
          113 23 93 82 27 155 78 439 rcurveline
          -70 hlineto
          347 callsubr
          -145 -26 -85 -59 -108 hhcurveto
          -109 -66 59 145 26 hvcurveto
          78 439 rlineto
          endchar
        </CharString>
        <CharString name="Uring">
          -89 callgsubr
          110 155 54 callgsubr
        </CharString>
        <CharString name="Utilde">
          -89 callgsubr
          60 51 -88 callsubr
          endchar
        </CharString>
        <CharString name="V">
          54 98 699 rmoveto
          141 -699 rlineto
          80 hlineto
          389 699 rlineto
          -76 hlineto
          -339 -620 -119 620 rlineto
          endchar
        </CharString>
        <CharString name="W">
          -7 callgsubr
          endchar
        </CharString>
        <CharString name="Wacute">
          -7 callgsubr
          559 228 -52 callgsubr
          endchar
        </CharString>
        <CharString name="Wcircumflex">
          -7 callgsubr
          490 65 -11 callgsubr
        </CharString>
        <CharString name="Wdieresis">
          -7 callgsubr
          282 79 -90 callsubr
          endchar
        </CharString>
        <CharString name="Wgrave">
          -7 callgsubr
          217 225 47 callgsubr
        </CharString>
        <CharString name="X">
          -20 415 hmoveto
          79 hlineto
          -150 349 275 350 rlineto
          -79 hlineto
          -222 -290 -125 290 rlineto
          -79 hlineto
          150 -348 -273 -351 rlineto
          78 hlineto
          220 292 rlineto
          endchar
        </CharString>
        <CharString name="Y">
          9 callsubr
          endchar
        </CharString>
        <CharString name="Yacute">
          9 callsubr
          312 215 -52 callgsubr
          endchar
        </CharString>
        <CharString name="Ycircumflex">
          9 callsubr
          324 52 -11 callgsubr
        </CharString>
        <CharString name="Ydieresis">
          9 callsubr
          117 68 -90 callsubr
          endchar
        </CharString>
        <CharString name="Ygrave">
          9 callsubr
          107 215 47 callgsubr
        </CharString>
        <CharString name="Z">
          65 callgsubr
          endchar
        </CharString>
        <CharString name="Zacute">
          65 callgsubr
          381 852 -52 callgsubr
          endchar
        </CharString>
        <CharString name="Zcaron">
          65 callgsubr
          417 827 -31 callsubr
        </CharString>
        <CharString name="Zdotaccent">
          65 callgsubr
          261 695 -41 callsubr
        </CharString>
        <CharString name="a">
          -99 callgsubr
          endchar
        </CharString>
        <CharString name="aacute">
          -99 callgsubr
          -6 497 -52 callgsubr
          endchar
        </CharString>
        <CharString name="abreve">
          -99 callgsubr
          31 461 -77 callsubr
          endchar
        </CharString>
        <CharString name="acircumflex">
          -99 callgsubr
          7 334 -11 callgsubr
        </CharString>
        <CharString name="acute">
          -352 315 770 -52 callgsubr
          endchar
        </CharString>
        <CharString name="adieresis">
          -99 callgsubr
          -200 350 -90 callsubr
          endchar
        </CharString>
        <CharString name="ae">
          503 3 callgsubr
          endchar
        </CharString>
        <CharString name="agrave">
          -99 callgsubr
          -211 497 47 callgsubr
        </CharString>
        <CharString name="amacron">
          -99 callgsubr
          -280 427 90 callgsubr
        </CharString>
        <CharString name="ampersand">
          70 415 726 rmoveto
          -114 -73 -77 -79 -14 hvcurveto
          -10 -63 22 -45 34 -51 11 -15 rcurveline
          2 -7 -9 1 -9 hhcurveto
          -101 -100 -75 -125 -22 hvcurveto
          -126 -22 79 -81 111 hhcurveto
          105 94 76 99 26 hvcurveto
          114 -167 rlineto
          84 hlineto
          -299 457 -26 38 -12 29 7 45 rlinecurve
          52 10 45 46 66 hhcurveto
          66 33 -43 -65 -11 hvcurveto
          -2 -10 -3 -13 -6 -10 rrcurveto
          69 hlineto
          6 12 4 14 3 14 rrcurveto
          80 14 -43 80 -120 hhcurveto
          -329 -527 rmoveto
          90 16 68 53 74 hhcurveto
          74 60 -64 -85 -15 hvcurveto
          -81 -14 -69 -60 -78 hhcurveto
          -76 -55 57 90 15 hvcurveto
          endchar
        </CharString>
        <CharString name="aogonek">
          70 46 274 rmoveto
          -171 -30 92 -111 149 hhcurveto
          109 87 59 70 43 hvcurveto
          -18 -105 -5 -2 -85 -36 -36 -42 -8 -45 rlinecurve
          -12 callgsubr
          64 29 rcurveline
          265 callgsubr
          -70 hlineto
          -21 -120 rlineto
          69 -19 -64 59 -110 hhcurveto
          -150 80 callgsubr
        </CharString>
        <CharString name="apostrophemod.ss01">
          -455 198 772 rmoveto
          101 callsubr
          3 29 -1 33 rrcurveto
          endchar
        </CharString>
        <CharString name="approxequal">
          -118 33 221 rmoveto
          110 callgsubr
          200 vmoveto
          110 callgsubr
          endchar
        </CharString>
        <CharString name="aring">
          -99 callgsubr
          -209 437 54 callgsubr
        </CharString>
        <CharString name="asciicircum">
          1 361 602 rmoveto
          116 -431 rlineto
          72 hlineto
          -142 519 rlineto
          -63 hlineto
          -326 -519 rlineto
          72 hlineto
          endchar
        </CharString>
        <CharString name="asciitilde">
          -118 33 257 rmoveto
          110 callgsubr
          endchar
        </CharString>
        <CharString name="asterisk">
          -136 306 575 rmoveto
          47 157 rlineto
          -73 hlineto
          -12 -157 -111 94 -48 -66 136 -57 -156 -57 25 -66 143 94 -43 -157 rlineto
          73 hlineto
          9 157 109 -92 46 64 -138 57 158 57 -24 64 rlineto
          endchar
        </CharString>
        <CharString name="at">
          508 738 294 rmoveto
          -144 -34 -115 -100 -111 hhcurveto
          -105 -49 90 116 30 hvcurveto
          137 32 109 102 114 hhcurveto
          112 45 -87 -114 -28 hvcurveto
          -454 -36 rmoveto
          -159 -41 78 -109 131 hhcurveto
          101 80 55 80 60 hvcurveto
          -90 -30 32 -45 77 hhcurveto
          124 142 148 203 36 hvcurveto
          257 46 -135 179 -287 hhcurveto
          -342 -263 -251 -304 -54 hvcurveto
          -54 -305 172 -160 286 -5 25 58 rcurveline
          -256 5 -149 133 48 274 rrcurveto
          278 50 228 219 291 hhcurveto
          250 112 -153 -224 -40 hvcurveto
          -179 -31 -105 -113 -78 hhcurveto
          -37 -18 18 52 17 hvcurveto
          53 158 rlineto
          150 50 -59 128 -164 hhcurveto
          -151 -152 -122 -176 -43 hvcurveto
          endchar
        </CharString>
        <CharString name="atilde">
          -99 callgsubr
          -259 333 -88 callsubr
          endchar
        </CharString>
        <CharString name="b">
          70 175 425 rmoveto
          55 315 rlineto
          -69 hlineto
          -131 -740 rlineto
          69 hlineto
          21 120 rlineto
          -71 21 65 -57 233 callsubr
          -91 109 -151 hhcurveto
          -106 -86 -57 -72 -46 hvcurveto
          379 -151 115 callsubr
        </CharString>
        <CharString name="backslash">
          -117 341 -166 rmoveto
          -108 1106 rlineto
          -70 hlineto
          109 -1106 rlineto
          endchar
        </CharString>
        <CharString name="bar">
          -344 256 790 rmoveto
          -70 hlineto
          -158 -890 rlineto
          70 hlineto
          endchar
        </CharString>
        <CharString name="braceleft">
          -179 163 371 rmoveto
          2 vlineto
          83 17 42 60 13 68 11 67 -13 43 16 89 21 123 76 81 68 30 2 10 rcurveline
          -70 hlineto
          -38 -18 -98 -59 -29 -160 -13 -77 12 -56 -12 -65 -7 -45 -23 -68 -99 -23 -6 -36 rcurveline
          90 -23 -1 -68 -8 -45 -12 -65 -31 -56 -13 -77 -29 -160 77 -59 32 -18 rrcurveto
          70 hlineto
          2 10 -58 30 -47 81 22 123 rlinecurve
          16 89 28 43 12 67 12 68 -21 60 -77 17 rrcurveto
          endchar
        </CharString>
        <CharString name="braceright">
          -178 300 373 rmoveto
          -2 vlineto
          -84 -17 -43 -60 -11 -68 -12 -67 13 -43 -15 -89 -22 -123 -75 -81 -68 -30 -2 -10 rcurveline
          70 hlineto
          38 18 97 59 29 160 14 77 -13 56 12 65 8 45 22 68 100 23 6 36 rcurveline
          -92 23 3 68 7 45 12 65 31 56 14 77 29 160 -78 59 -31 18 rrcurveto
          -70 hlineto
          -2 -10 58 -30 46 -81 -22 -123 rlinecurve
          -15 -89 -29 -43 -12 -67 -12 -68 23 -60 76 -17 rrcurveto
          endchar
        </CharString>
        <CharString name="bracketleft">
          -245 234 940 rmoveto
          -195 -1106 rlineto
          155 hlineto
          10 59 rlineto
          -88 hlineto
          174 988 rlineto
          89 hlineto
          10 59 rlineto
          endchar
        </CharString>
        <CharString name="bracketright">
          -245 162 -166 rmoveto
          195 1106 rlineto
          -154 hlineto
          -11 -59 rlineto
          89 hlineto
          -174 -988 rlineto
          -89 hlineto
          -10 -59 rlineto
          endchar
        </CharString>
        <CharString name="breve">
          -286 374 734 -77 callsubr
          endchar
        </CharString>
        <CharString name="brokenbar">
          -344 164 270 rmoveto
          -70 hlineto
          -66 -370 rlineto
          70 hlineto
          22 520 rmoveto
          70 hlineto
          66 370 rlineto
          -70 hlineto
          endchar
        </CharString>
        <CharString name="bullet">
          -239 171 218 rmoveto
          65 60 51 64 11 hvcurveto
          65 12 -42 51 -65 hhcurveto
          -64 -60 -51 -65 -12 hvcurveto
          -64 -11 42 -51 64 hhcurveto
          endchar
        </CharString>
        <CharString name="c">
          -23 callsubr
          endchar
        </CharString>
        <CharString name="cacute">
          -23 callsubr
          440 497 -52 callgsubr
          endchar
        </CharString>
        <CharString name="caron">
          -289 373 745 -31 callsubr
        </CharString>
        <CharString name="ccaron">
          -23 callsubr
          477 472 -31 callsubr
        </CharString>
        <CharString name="ccedilla">
          8 46 273 rmoveto
          -29 -163 81 -105 138 -12 -19 -105 rcurveline
          70 callgsubr
          11 60 rcurveline
          126 8 94 74 41 103 rrcurveto
          -75 hlineto
          -80 -33 -73 -47 -93 hhcurveto
          -107 -73 74 148 26 hvcurveto
          148 26 100 73 107 hhcurveto
          92 57 -48 -78 4 hvcurveto
          75 hlineto
          113 -5 -76 73 -137 hhcurveto
          -154 -130 -108 -173 -31 hvcurveto
          endchar
        </CharString>
        <CharString name="cdotaccent">
          -23 callsubr
          321 340 -41 callsubr
        </CharString>
        <CharString name="cedilla">
          -340 51 -67 rmoveto
          14 74 rlineto
          -50 hlineto
          -21 -119 rlineto
          70 callgsubr
          rrcurveto
          endchar
        </CharString>
        <CharString name="cent">
          37 348 614 rmoveto
          -17 -96 -143 -11 -103 -101 -25 -142 rlinecurve
          -25 -141 66 -101 141 -11 -18 -101 rcurveline
          44 hlineto
          18 101 122 6 93 75 31 100 rlinecurve
          -66 hlineto
          -76 -30 -67 -48 -91 hhcurveto
          -103 -71 66 130 23 hvcurveto
          130 23 94 67 103 hhcurveto
          91 51 -48 -76 2 hvcurveto
          66 hlineto
          5 100 -67 75 -120 7 17 95 rcurveline
          endchar
        </CharString>
        <CharString name="circumflex">
          -289 349 607 -11 callgsubr
        </CharString>
        <CharString name="colon">
          -420 41 249 callsubr
          435 vmoveto
          252 callgsubr
        </CharString>
        <CharString name="colon.ss01">
          -404 19 307 callgsubr
          -16 436 rmoveto
          -17 -94 rlineto
          92 hlineto
          17 94 rlineto
          endchar
        </CharString>
        <CharString name="comma">
          -432 36 116 189 callgsubr
        </CharString>
        <CharString name="comma.ss01">
          -438 84 337 callsubr
          -19 -21 -34 303 callsubr
          endchar
        </CharString>
        <CharString name="copyright">
          191 755 350 rmoveto
          -207 -37 -165 -147 -205 hhcurveto
          -205 -115 147 207 36 hvcurveto
          207 37 166 146 205 hhcurveto
          205 115 -146 -207 -37 hvcurveto
          -655 hmoveto
          -189 -33 96 -132 191 hhcurveto
          189 143 132 189 33 hvcurveto
          189 33 -95 132 -190 hhcurveto
          -191 -142 -132 -189 -34 hvcurveto
          94 1 rmoveto
          -149 -26 83 -85 117 hhcurveto
          98 91 57 93 42 hvcurveto
          -65 hlineto
          -64 -32 -57 -34 -67 hhcurveto
          -83 -59 61 120 21 hvcurveto
          120 21 81 61 83 hhcurveto
          64 49 -33 -65 8 hvcurveto
          65 hlineto
          97 -8 -71 54 -98 hhcurveto
          -118 -113 -86 -147 -26 hvcurveto
          endchar
        </CharString>
        <CharString name="currency">
          -79 302 509 rmoveto
          59 45 -48 -84 -15 hvcurveto
          -85 -14 -64 -46 -58 hhcurveto
          -61 -41 46 85 15 hvcurveto
          84 15 58 48 61 hhcurveto
          106 -333 rmoveto
          38 33 -49 60 26 28 19 37 7 43 rlinecurve
          8 43 -6 37 -16 29 71 61 rcurveline
          -27 33 -71 -61 rlineto
          21 -25 -34 12 -39 hhcurveto
          -39 -38 -12 -21 -31 hvcurveto
          -50 61 -40 -33 51 -61 -26 -28 -18 -38 -8 -43 rlinecurve
          -8 -43 5 -37 15 -29 -70 -59 rcurveline
          28 -33 69 59 rlineto
          -21 24 34 -12 40 hhcurveto
          39 38 12 21 33 hvcurveto
          endchar
        </CharString>
        <CharString name="d">
          70 46 274 rmoveto
          361 callsubr
          86 58 72 45 hvcurveto
          -22 -122 239 callsubr
          -70 hlineto
          -55 -312 rlineto
          72 -23 -72 54 -98 24 callgsubr
        </CharString>
        <CharString name="dagger">
          -94 518 546 rmoveto
          305 callgsubr
          189 7 -140 -754 rlineto
          69 hlineto
          126 754 187 -7 rlineto
          endchar
        </CharString>
        <CharString name="daggerdbl">
          -93 508 489 rmoveto
          10 57 305 callgsubr
          190 7 -84 -471 -186 7 -11 -57 190 7 -50 -240 rlineto
          69 hlineto
          36 240 187 -7 10 57 -190 -7 84 471 rlineto
          endchar
        </CharString>
        <CharString name="danda">
          -339 287 278 callgsubr
          endchar
        </CharString>
        <CharString name="dcaron">
          125 810 740 rmoveto
          -81 hlineto
          -13 -76 rlineto
          46 hlineto
          -5 -25 rlineto
          -33 -6 -16 -18 -34 hhcurveto
          -6 -36 rlineto
          58 39 29 74 12 hvcurveto
          4 24 2 28 33 vvcurveto
          -764 -466 rmoveto
          361 callsubr
          86 58 72 45 hvcurveto
          -22 -122 239 callsubr
          -70 hlineto
          -55 -312 rlineto
          72 -23 -72 54 -98 24 callgsubr
        </CharString>
        <CharString name="dcroat">
          66 46 274 rmoveto
          361 callsubr
          86 58 72 45 hvcurveto
          -22 -122 rlineto
          70 hlineto
          109 618 rlineto
          63 hlineto
          8 44 rlineto
          -63 hlineto
          14 78 rlineto
          -70 hlineto
          -14 -78 rlineto
          -140 hlineto
          -8 -44 rlineto
          140 hlineto
          -33 -190 rlineto
          72 -23 -72 54 -98 24 callgsubr
        </CharString>
        <CharString name="degree">
          -211 71 522 rmoveto
          -105 -18 55 -70 99 hhcurveto
          99 83 70 105 18 hvcurveto
          106 19 -58 69 -98 hhcurveto
          -98 -82 -69 -106 -19 hvcurveto
          278 hmoveto
          -85 -14 -58 -46 -62 hhcurveto
          -63 -38 46 85 15 hvcurveto
          85 14 56 47 63 hhcurveto
          63 39 -47 -85 -15 hvcurveto
          endchar
        </CharString>
        <CharString name="dieresis">
          -290 141 623 -90 callsubr
          endchar
        </CharString>
        <CharString name="divide">
          334 callgsubr
          -335 -196 rmoveto
          -16 -94 rlineto
          92 hlineto
          16 94 rlineto
          -17 425 rmoveto
          -16 -93 rlineto
          92 hlineto
          16 93 rlineto
          endchar
        </CharString>
        <CharString name="divide.ss01">
          334 callgsubr
          -313 -296 rmoveto
          -48 callsubr
          70 429 rmoveto
          252 callgsubr
        </CharString>
        <CharString name="dollar">
          -8 356 791 rmoveto
          -15 -84 -129 -5 -92 -76 -18 -105 rlinecurve
          -24 -137 101 -29 95 -27 -49 -276 rcurveline
          -84 11 -27 61 3 54 rrcurveto
          -74 hlineto
          -14 -100 68 -74 118 -10 -14 -81 rcurveline
          40 hlineto
          14 80 141 5 83 96 16 90 rlinecurve
          25 140 -101 29 -96 27 48 267 rcurveline
          73 -12 28 -54 -1 -44 rrcurveto
          74 hlineto
          5 90 -56 69 -113 10 15 85 rcurveline
          28 -610 rmoveto
          -12 -69 -57 -57 -90 -5 47 267 rcurveline
          70 -22 57 -30 -15 -84 rrcurveto
          -250 343 rmoveto
          13 81 64 41 80 3 -46 -258 rcurveline
          -69 21 -57 29 15 83 rrcurveto
          endchar
        </CharString>
        <CharString name="dotaccent">
          -458 134 623 -41 callsubr
        </CharString>
        <CharString name="dotlessi">
          38 callgsubr
          endchar
        </CharString>
        <CharString name="dottedcircle">
          46 557 409 -6 callgsubr
          -376 -286 -6 callgsubr
          98 -76 -6 callgsubr
          -143 189 -6 callgsubr
          267 -203 -6 callgsubr
          -252 324 -6 callgsubr
          367 -278 -6 callgsubr
          -291 377 -6 callgsubr
          364 -281 -6 callgsubr
          -247 323 -6 callgsubr
          257 -203 -6 callgsubr
          -136 188 -6 callgsubr
          endchar
        </CharString>
        <CharString name="doubledanda">
          -145 287 278 callgsubr
          324 278 callgsubr
          endchar
        </CharString>
        <CharString name="dvA">
          218 297 441 rmoveto
          -64 callsubr
          182 callgsubr
          141 hlineto
          8 54 rlineto
          -203 -53 callgsubr
          endchar
        </CharString>
        <CharString name="dvAA">
          505 297 441 rmoveto
          -64 callsubr
          182 callgsubr
          222 hlineto
          -120 -686 13 callgsubr
          -490 -53 callgsubr
          endchar
        </CharString>
        <CharString name="dvAI">
          46 292 19 rmoveto
          30 callgsubr
          -123 hlineto
          221 -92 -47 320 callsubr
          38 hlineto
          100 34 -12 -171 79 hvcurveto
          -526 -97 callgsubr
          244 callgsubr
          endchar
        </CharString>
        <CharString name="dvAU">
          505 646 hmoveto
          331 callgsubr
          222 hlineto
          -120 -686 13 callgsubr
          -80 hlineto
          281 -95 213 callsubr
          106 29 -5 -97 100 hvcurveto
          -352 -53 callgsubr
          -64 callsubr
          endchar
        </CharString>
        <CharString name="dvAbbreviationsign">
          -107 278 512 rmoveto
          -98 -79 -66 -94 -16 hvcurveto
          -93 -17 60 -67 97 hhcurveto
          96 76 66 93 16 hvcurveto
          95 17 -57 66 -95 hhcurveto
          -6 -42 rmoveto
          70 40 -50 -69 -12 hvcurveto
          -69 -13 -57 -48 -70 hhcurveto
          -72 -42 49 69 11 hvcurveto
          69 12 61 49 72 hhcurveto
          endchar
        </CharString>
        <CharString name="dvAcandra">
          218 297 441 rmoveto
          -64 callsubr
          182 callgsubr
          141 hlineto
          8 54 rlineto
          -203 -53 callgsubr
          549 403 82 callgsubr
          endchar
        </CharString>
        <CharString name="dvAnusvara">
          -605 -60 841 rmoveto
          26 24 20 27 4 hvcurveto
          26 4 -15 20 -28 hhcurveto
          -26 -24 -20 -26 -4 hvcurveto
          -27 -4 17 -20 26 hhcurveto
          endchar
        </CharString>
        <CharString name="dvAnusvara.amI">
          -605 112 841 rmoveto
          27 24 20 27 4 hvcurveto
          26 4 -16 20 -27 hhcurveto
          -27 -23 -20 -26 -5 hvcurveto
          -27 -4 16 -20 27 hhcurveto
          endchar
        </CharString>
        <CharString name="dvAvagraha">
          -34 27 65 rmoveto
          254 hlineto
          95 50 54 63 10 hvcurveto
          28 157 -251 89 22 121 rrcurveto
          56 10 53 12 46 hhcurveto
          181 360 callsubr
          -198 hlineto
          -78 -73 -30 -84 -15 hvcurveto
          -29 -162 252 -88 -21 -118 rrcurveto
          -38 -6 -34 -32 -56 hhcurveto
          -240 hlineto
          endchar
        </CharString>
        <CharString name="dvB">
          -176 280 99 rmoveto
          155 106 112 128 21 hvcurveto
          111 19 -58 127 -169 -7 callsubr
          71 431 74 callsubr
          -325 156 rmoveto
          599 -64 callgsubr
          -598 hlineto
          249 -594 -63 callsubr
          endchar
        </CharString>
        <CharString name="dvBA">
          84 451 hmoveto
          42 callgsubr
          -747 -97 callgsubr
          545 148 callsubr
          -136 -117 -90 -147 -26 hvcurveto
          -145 -20 callgsubr
          endchar
        </CharString>
        <CharString name="dvBH">
          -94 220 166 -52 callsubr
          196 hlineto
          9 53 rlineto
          -196 -62 callsubr
        </CharString>
        <CharString name="dvBHA">
          174 220 166 -52 callsubr
          174 hlineto
          -70 -398 rlineto
          64 hlineto
          121 686 rlineto
          141 hlineto
          9 54 rlineto
          -205 hlineto
          -51 -289 rlineto
          -174 -62 callsubr
        </CharString>
        <CharString name="dvBH_LA">
          795 220 166 -52 callsubr
          152 hlineto
          -9 -22 -7 -25 -5 -27 rrcurveto
          -137 -26 65 -108 154 hhcurveto
          11 265 callsubr
          59 73 98 hhcurveto
          95 32 -82 -118 -22 hvcurveto
          -2 -13 rlineto
          55 hlineto
          1 13 rlineto
          120 22 62 80 97 hhcurveto
          93 33 269 callsubr
          -114 hhcurveto
          -9 -11 1 1 -9 hvcurveto
          -10 -57 rlineto
          -1 11 15 -1 10 hhcurveto
          154 -1 95 103 24 138 21 118 -45 89 -94 18 25 142 rcurveline
          260 -100 callsubr
          -883 153 callgsubr
          559 hlineto
          -24 -139 -100 -10 -56 -74 -27 -68 rlinecurve
          379 callsubr
          -65 -35 -62 -43 hvcurveto
          -172 -62 callsubr
        </CharString>
        <CharString name="dvBH_NA">
          689 220 166 -52 callsubr
          164 hlineto
          -13 -23 -10 -26 -5 -29 rrcurveto
          -110 -18 70 -80 116 hhcurveto
          106 93 71 110 20 -10 callsubr
          64 327 callgsubr
          139 -100 callsubr
          -744 153 callgsubr
          540 210 callsubr
          -65 -56 -19 -36 -43 hvcurveto
          -200 121 callgsubr
          -74 -67 -102 -16 hvcurveto
          22 callgsubr
          11 51 72 callsubr
          -102 hlineto
          -108 -88 -62 -108 -20 hvcurveto
          383 callsubr
          105 hhcurveto
          531 74 -66 callgsubr
          -66 -58 -80 hhcurveto
          endchar
        </CharString>
        <CharString name="dvBH_R">
          -103 279 callsubr
          13 59 142 callgsubr
          198 hlineto
          9 53 rlineto
          -198 124 callgsubr
          -25 -202 rmoveto
          74 hlineto
          332 283 11 64 rlineto
          endchar
        </CharString>
        <CharString name="dvBH_RA">
          195 279 callsubr
          13 59 142 callgsubr
          199 hlineto
          -22 -122 -418 -349 rlineto
          74 hlineto
          335 285 -38 -215 rlineto
          59 -40 callgsubr
          -202 hlineto
          -50 -286 rlineto
          -199 124 callgsubr
          endchar
        </CharString>
        <CharString name="dvBH_R_YA">
          624 279 callsubr
          12 60 142 callgsubr
          142 hlineto
          -1 -7 -10 -54 2 -48 13 -39 rlinecurve
          -387 -323 rlineto
          74 hlineto
          331 283 rlineto
          -60 37 69 -34 94 29 callgsubr
          -172 hlineto
          16 91 rlineto
          124 22 -36 359 callsubr
          -101 -74 -66 -102 -15 hvcurveto
          312 callgsubr
          -14 vvcurveto
          62 hlineto
          15 0 12 2 13 vhcurveto
          72 11 50 42 61 hhcurveto
          73 22 -55 -87 -16 hvcurveto
          -18 -100 rlineto
          -102 hlineto
          -106 -87 -55 -97 -19 hvcurveto
          -99 -20 64 -68 104 hhcurveto
          597 42 35 callgsubr
          endchar
        </CharString>
        <CharString name="dvBH_VA">
          576 786 156 rmoveto
          -103 -67 271 callgsubr
          20 93 196 callgsubr
          10 -52 callsubr
          156 289 callsubr
          85 -91 133 hhcurveto
          98 321 callsubr
          63 -2 callsubr
          -648 -97 callgsubr
          446 128 callgsubr
          -92 -83 -44 -75 -50 hvcurveto
          -173 -62 callsubr
        </CharString>
        <CharString name="dvBH_YA">
          624 220 166 -17 callgsubr
          594 8 35 callgsubr
          -600 -63 90 callsubr
          -101 -72 -67 -102 -18 hvcurveto
          22 callgsubr
          13 49 72 callsubr
          -102 hlineto
          -108 -88 -62 -108 -20 hvcurveto
          383 callsubr
          105 hhcurveto
          endchar
        </CharString>
        <CharString name="dvB_BA">
          526 351 530 rmoveto
          126 47 -94 -89 -12 hvcurveto
          -3 -1 -2 -3 vvcurveto
          -1 -3 0 -3 -3 vvcurveto
          -9 -38 -19 -40 -31 -33 39 callgsubr
          542 -530 192 callgsubr
          -1189 -97 callgsubr
          987 148 callsubr
          -97 -88 -46 -80 -51 hvcurveto
          71 -24 -64 56 -112 -7 callsubr
          106 83 52 74 48 hvcurveto
          -78 27 75 -47 94 hhcurveto
          102 76 53 65 41 hvcurveto
          -647 -72 -63 callsubr
          446 2 51 callgsubr
        </CharString>
        <CharString name="dvB_BHA">
          605 652 166 rmoveto
          162 callsubr
          74 hhcurveto
          101 hlineto
          -16 -88 rlineto
          -91 -16 -50 -53 -71 hhcurveto
          -7 -55 103 callsubr
          174 33 callsubr
          142 hlineto
          8 242 callgsubr
          -17 hvcurveto
          -667 -97 callgsubr
          688 hlineto
          4 13 14 3 14 hhcurveto
          71 21 295 callgsubr
          -18 -100 rlineto
          -102 hlineto
          -57 -52 -18 -32 -39 hvcurveto
          91 -8 -64 85 -138 -7 callsubr
          94 77 42 61 50 hvcurveto
          -56 18 52 -35 74 hhcurveto
          -294 419 rmoveto
          131 45 -101 -92 -16 hvcurveto
          -2 -8 -2 -9 -2 -8 rrcurveto
          -1 -1 0 -1 -1 vvcurveto
          -10 -31 -18 -32 -25 -27 39 callgsubr
          -66 -384 -63 callsubr
          endchar
        </CharString>
        <CharString name="dvB_BH_RA">
          627 351 530 rmoveto
          131 45 -101 -92 -16 hvcurveto
          -1 -5 0 -2 -1 -1 -3 -8 -2 -9 -2 -9 -10 -29 -17 -29 -24 -26 39 callgsubr
          -66 -384 -63 callsubr
          371 39 rmoveto
          -66 -42 46 69 13 hvcurveto
          62 13 59 39 72 hhcurveto
          102 hlineto
          -12 -72 190 callgsubr
          -72 hhcurveto
          340 -185 170 callsubr
          -668 -97 callgsubr
          687 hlineto
          5 13 14 2 15 hhcurveto
          72 22 -55 -87 -16 hvcurveto
          -17 -97 rlineto
          -103 hlineto
          -58 -52 -17 -32 -39 hvcurveto
          90 -10 -64 82 -136 -7 callsubr
          100 79 46 67 50 hvcurveto
          -50 20 51 -30 70 304 callgsubr
          -417 -349 rlineto
          74 hlineto
          335 285 rlineto
          endchar
        </CharString>
        <CharString name="dvB_DA">
          447 351 530 74 callsubr
          -66 -384 -63 callsubr
          618 -157 -14 callgsubr
          -1109 -97 callgsubr
          895 129 callgsubr
          -106 -100 -37 -83 -57 hvcurveto
          71 -24 -63 58 -114 -7 callsubr
          106 82 52 74 49 hvcurveto
          -74 24 66 -43 87 hhcurveto
          78 248 callsubr
          332 callgsubr
          endchar
        </CharString>
        <CharString name="dvB_DHA">
          524 266 callgsubr
          -29 -36 -47 -20 -57 hhcurveto
          393 -43 rmoveto
          107 92 51 81 52 212 callgsubr
          -50 callgsubr
          11 54 51 66 hhcurveto
          76 32 -53 -80 -22 hvcurveto
          50 hlineto
          113 33 -54 74 -109 hhcurveto
          -22 -21 282 callsubr
          -639 -97 callgsubr
          564 138 callgsubr
          -56 -7 -64 -38 -24 -74 rrcurveto
          0 vlineto
          -11 -30 -17 -29 152 callsubr
          50 hvcurveto
          -68 20 72 -37 89 hhcurveto
          endchar
        </CharString>
        <CharString name="dvB_DH_VA">
          958 266 callgsubr
          -30 -36 -47 -19 -57 hhcurveto
          406 -43 -44 callsubr
          -639 -97 callgsubr
          564 138 callgsubr
          -56 -7 -63 -37 -25 -74 rrcurveto
          0 vlineto
          -11 -30 -17 -30 152 callsubr
          49 hvcurveto
          -70 21 76 -35 98 hhcurveto
          475 53 rmoveto
          -103 -93 callgsubr
          -130 hhcurveto
          endchar
        </CharString>
        <CharString name="dvB_JA">
          657 286 146 2 callsubr
        </CharString>
        <CharString name="dvB_JHA">
          692 291 146 rmoveto
          -105 -79 70 119 20 hvcurveto
          9 50 21 41 30 32 246 183 callgsubr
          -47 -20 -59 hhcurveto
          408 174 rmoveto
          -64 -54 24 68 13 hvcurveto
          78 13 78 16 62 hhcurveto
          191 hlineto
          8 47 295 callsubr
          133 rlineto
          213 hlineto
          -64 -366 rlineto
          -56 -320 rmoveto
          62 hlineto
          122 -92 callgsubr
          -1355 -97 callgsubr
          877 hlineto
          -23 -133 rlineto
          -146 hlineto
          -90 -99 -33 -107 -18 hvcurveto
          -9 -47 -8 -49 -21 -54 -37 -42 rlinecurve
          -244 261 rlineto
          32 42 52 17 53 hhcurveto
          30 26 -5 -8 23 hvcurveto
          7 46 rlineto
          8 -24 -29 5 -30 hhcurveto
          -149 -115 -96 -144 -26 hvcurveto
          -144 -25 95 -94 140 hhcurveto
          144 91 97 121 36 hvcurveto
          27 -29 45 -14 50 -1 rrcurveto
          72 hlineto
          101 46 -46 -74 -14 hvcurveto
          -58 -10 -47 -51 -93 hhcurveto
          -104 -44 60 68 2 hvcurveto
          -55 hlineto
          -44 -247 rlineto
          59 hlineto
          29 164 rlineto
          -25 9 36 -69 120 hhcurveto
          119 67 68 83 14 hvcurveto
          11 62 -19 40 -33 24 211 -1 rcurveline
          endchar
        </CharString>
        <CharString name="dvB_J_YA">
          1113 351 256 callsubr
          -32 -35 -244 262 rcurveline
          31 41 50 18 52 hhcurveto
          -65 -384 rmoveto
          -105 -80 70 119 21 hvcurveto
          9 49 22 42 30 32 244 -262 180 callsubr
          1019 28 rmoveto
          -135 -66 102 138 27 hvcurveto
          1 2 0 3 1 3 125 5 90 54 20 120 159 callgsubr
          -316 rlineto
          1 vlineto
          -118 -19 -103 -79 -116 hhcurveto
          237 -174 rmoveto
          6 callgsubr
          -1776 -97 callgsubr
          1294 160 callgsubr
          -108 -19 -81 290 callsubr
          -82 -15 -57 -57 -77 hhcurveto
          -74 -36 56 81 14 hvcurveto
          1 vlineto
          1 1 2 2 vvcurveto
          111 19 -56 127 -171 hhcurveto
          -144 -119 -94 -144 -26 hvcurveto
          -144 -25 95 -96 142 hhcurveto
          106 83 52 73 49 hvcurveto
          19 -52 46 -32 71 -1 118 -1 79 82 20 115 14 80 rcurveline
          150 hlineto
          13 11 0 10 hhcurveto
          -166 -30 82 -130 164 hhcurveto
          110 80 53 63 44 212 callgsubr
          endchar
        </CharString>
        <CharString name="dvB_JxA">
          657 623 106 callsubr
          -337 185 2 callsubr
        </CharString>
        <CharString name="dvB_LA">
          731 981 79 rmoveto
          153 -1 96 103 23 138 21 118 -45 88 -93 19 24 142 rcurveline
          261 -100 callsubr
          -1395 -97 callgsubr
          1071 hlineto
          -24 120 callsubr
          -111 hhcurveto
          -78 -63 -36 -65 -42 hvcurveto
          72 -23 -64 58 -114 -7 callsubr
          99 80 46 67 49 hvcurveto
          -80 18 63 -53 106 315 callsubr
          -116 -43 85 callsubr
          16 251 callgsubr
          93 32 269 callsubr
          -113 hhcurveto
          -10 -10 1 1 -10 hvcurveto
          -10 97 callgsubr
          -696 67 -63 callsubr
          66 384 74 callsubr
          endchar
        </CharString>
        <CharString name="dvB_L_YA">
          1239 285 146 -63 callsubr
          1144 28 rmoveto
          -134 -71 85 137 27 hvcurveto
          3 1 4 1 4 vhcurveto
          128 3 88 54 24 109 callgsubr
          238 254 callsubr
          -1902 -97 callgsubr
          1419 hlineto
          -13 -75 -21 -115 -70 -43 -94 -8 rlinecurve
          -13 68 -63 37 -73 -2 -114 -5 -64 -75 -28 -73 rrcurveto
          -2 hlineto
          71 -4 182 callsubr
          -78 -64 -37 -64 -42 hvcurveto
          72 -23 -64 58 -114 -7 callsubr
          101 80 47 69 49 hvcurveto
          -81 19 61 -55 106 hhcurveto
          10 265 callsubr
          174 callsubr
          95 25 -81 -119 -15 hvcurveto
          -2 -13 rlineto
          55 hlineto
          2 13 15 121 68 75 97 4 rlinecurve
          62 3 50 -35 -2 -52 rrcurveto
          -2 -1 -2 -2 vvcurveto
          -171 -31 84 -111 166 hhcurveto
          111 81 13 callsubr
          -1252 530 74 callsubr
          endchar
        </CharString>
        <CharString name="dvB_NA">
          627 683 185 -99 callsubr
          -332 345 74 callsubr
          -66 -384 -63 callsubr
          770 -146 rmoveto
          -76 callgsubr
          -1290 -97 callgsubr
          1087 210 callsubr
          -76 -66 -27 -49 -43 hvcurveto
          80 -19 -64 67 -123 -7 callsubr
          105 83 52 73 49 hvcurveto
          -58 23 58 -36 78 -59 callgsubr
          endchar
        </CharString>
        <CharString name="dvB_R">
          -176 26 686 rmoveto
          599 -64 callgsubr
          -598 hlineto
          244 -641 rmoveto
          16 15 1 2 15 hvcurveto
          -191 -153 rlineto
          67 hlineto
          246 203 61 45 41 68 12 74 rlinecurve
          111 19 -58 127 -169 -7 callsubr
          71 431 74 callsubr
          -66 -384 -63 callsubr
          endchar
        </CharString>
        <CharString name="dvB_RA">
          84 441 160 rmoveto
          20 17 15 19 13 19 -38 -215 rcurveline
          62 116 callgsubr
          -747 -97 callgsubr
          545 hlineto
          -40 -230 rlineto
          65 -20 -60 55 -100 hhcurveto
          -139 -117 -90 -147 -26 hvcurveto
          94 callsubr
        </CharString>
        <CharString name="dvB_SA">
          641 351 530 74 callsubr
          -66 -384 -63 callsubr
          611 442 -81 callgsubr
          -1305 -97 callgsubr
          825 hlineto
          -18 -98 rlineto
          -108 -20 -74 -69 -116 hhcurveto
          -60 hlineto
          88 -12 -64 78 -133 -7 callsubr
          86 70 34 52 50 hvcurveto
          -114 -11 60 -80 120 -33 callsubr
          16 hvcurveto
          endchar
        </CharString>
        <CharString name="dvB_SHA">
          620 662 -8 275 callsubr
          18 hvcurveto
          21 120 rlineto
          103 hlineto
          138 116 31 callsubr
          -23 -21 282 callsubr
          -689 -97 callgsubr
          705 hlineto
          5 15 18 2 18 hhcurveto
          79 49 -56 -92 -15 hvcurveto
          -109 -20 -99 -53 -108 hhcurveto
          -103 hlineto
          98 -1 -63 96 -147 -7 callsubr
          86 71 34 53 49 hvcurveto
          -118 -11 61 -76 126 hhcurveto
          -311 538 74 callsubr
          -66 -384 -63 callsubr
          699 -146 rmoveto
          65 116 callgsubr
          -205 hlineto
          endchar
        </CharString>
        <CharString name="dvB_TA">
          521 351 530 rmoveto
          131 45 -101 -92 -16 hvcurveto
          -2 -8 -2 -9 -2 -9 -2 -3 -1 -4 -1 -3 -11 -29 -16 -28 -23 -25 39 callgsubr
          -66 -384 -63 callsubr
          664 -146 -1 callgsubr
          -1184 -97 callgsubr
          980 210 callgsubr
          -104 -90 -28 -63 -60 hvcurveto
          89 -11 -64 80 -135 -7 callsubr
          85 70 34 51 50 hvcurveto
          -119 7 90 -63 128 -84 callgsubr
          152 hlineto
          -78 -444 rlineto
          endchar
        </CharString>
        <CharString name="dvB_VA">
          514 725 36 callsubr
          -374 374 74 callsubr
          -66 -384 -63 callsubr
          918 540 175 callgsubr
          -1177 -97 callgsubr
          975 5 callgsubr
          -93 -82 -44 -76 -49 hvcurveto
          71 -24 -63 56 -113 -7 callsubr
          106 83 52 74 49 hvcurveto
          -77 24 70 -44 93 -69 callsubr
          endchar
        </CharString>
        <CharString name="dvB_YA">
          568 997 hmoveto
          -98 callsubr
          -1232 -97 callgsubr
          749 hlineto
          -13 -75 -22 -124 -77 -39 -107 -3 rlinecurve
          73 -23 -64 59 -115 -7 callsubr
          115 88 62 84 47 hvcurveto
          30 -79 74 -46 105 -1 rrcurveto
          112 80 53 63 44 212 callgsubr
          -649 146 -63 callsubr
          475 28 98 callsubr
        </CharString>
        <CharString name="dvC">
          -137 69 480 rmoveto
          268 callsubr
          92 -72 120 hhcurveto
          146 117 107 134 20 hvcurveto
          -55 hlineto
          -17 -102 -90 -84 -106 -1 rrcurveto
          -91 197 callgsubr
          -52 155 rmoveto
          638 -100 callsubr
          -638 hlineto
          endchar
        </CharString>
        <CharString name="dvCA">
          125 26 686 rmoveto
          584 173 callgsubr
          -72 -32 -49 -63 -14 -78 rrcurveto
          -127 -22 85 -76 115 hhcurveto
          89 81 46 68 47 hvcurveto
          -38 -218 30 callsubr
          -788 hlineto
          endchar
        </CharString>
        <CharString name="dvCH">
          208 24 686 rmoveto
          44 callgsubr
          218 callgsubr
          185 callgsubr
          67 callgsubr
        </CharString>
        <CharString name="dvCHA">
          208 24 686 rmoveto
          44 callgsubr
          218 callgsubr
          240 callgsubr
          -874 hlineto
          311 -656 -88 callgsubr
          endchar
        </CharString>
        <CharString name="dvCH_R">
          208 24 686 118 callsubr
          67 callgsubr
        </CharString>
        <CharString name="dvCH_RA">
          208 344 84 -88 callgsubr
          -320 602 118 callsubr
          84 callgsubr
          -874 hlineto
          endchar
        </CharString>
        <CharString name="dvCH_R_YA">
          18 callgsubr
          -471 -300 rmoveto
          69 hlineto
          -128 162 138 23 110 74 55 114 rlinecurve
          254 callgsubr
          141 hlineto
          9 54 rlineto
          -1430 153 callgsubr
          44 callgsubr
          -25 -133 110 -79 164 -9 -177 -156 rcurveline
          68 hlineto
          173 154 rlineto
          endchar
        </CharString>
        <CharString name="dvCH_YA">
          18 callgsubr
          498 512 rmoveto
          -20 callsubr
          -1430 153 callgsubr
          44 callgsubr
          218 callgsubr
          180 148 80 138 67 hvcurveto
          254 callgsubr
          endchar
        </CharString>
        <CharString name="dvC_CA">
          531 335 158 rmoveto
          -91 -68 56 102 18 hvcurveto
          93 16 80 71 107 hhcurveto
          276 hlineto
          -71 -32 -49 -62 -15 -77 rrcurveto
          -82 -32 -75 -69 -96 hhcurveto
          885 528 175 callgsubr
          -1194 -97 callgsubr
          991 hlineto
          -63 -352 -23 -96 -85 -79 -105 -1 rlinecurve
          -90 358 callsubr
          17 79 71 106 hhcurveto
          34 331 callsubr
          -767 hlineto
          -9 -51 rlineto
          377 callgsubr
          -128 -23 91 -75 114 hhcurveto
          96 80 53 74 48 hvcurveto
          -81 17 71 -46 91 hhcurveto
          90 80 46 69 47 hvcurveto
          -39 -219 rlineto
          64 hlineto
          123 callsubr
          endchar
        </CharString>
        <CharString name="dvC_CHA">
          673 810 84 -13 callsubr
          -106 13 115 -59 155 hhcurveto
          185 callgsubr
          endchar
        </CharString>
        <CharString name="dvC_CH_VA">
          676 730 -264 rmoveto
          -82 -58 53 94 17 hvcurveto
          16 81 69 62 102 3 rrcurveto
          0 vlineto
          2 2 0 2 hhcurveto
          49 46 6 11 43 hvcurveto
          -29 -164 rlineto
          -66 -12 -61 -80 -106 hhcurveto
          80 348 -13 callsubr
          9 -77 63 -52 92 -23 -67 -26 -53 -57 -14 -81 -20 -115 75 -77 106 -1 84 -1 61 39 37 53 -27 -153 rcurveline
          58 hlineto
          79 444 119 50 85 97 23 132 rlinecurve
          endchar
        </CharString>
        <CharString name="dvC_MA">
          643 1085 451 49 callsubr
          -461 -520 -98 callgsubr
          665 520 175 callgsubr
          -1305 -97 callgsubr
          843 149 callsubr
          -99 -86 -55 -96 -25 hvcurveto
          -77 -28 -64 -65 -89 hhcurveto
          -90 -68 56 102 18 hvcurveto
          89 callgsubr
          94 -73 115 hhcurveto
          84 67 41 61 44 hvcurveto
          -59 16 54 -36 76 20 callgsubr
          endchar
        </CharString>
        <CharString name="dvC_NA">
          640 697 185 -99 callsubr
          634 501 rmoveto
          -20 callsubr
          -1304 -97 callgsubr
          1101 232 callsubr
          -2 -1 -2 -3 vvcurveto
          -84 -23 -66 -70 -97 hhcurveto
          -90 -1 -69 56 18 102 rrcurveto
          89 callgsubr
          97 -73 115 hhcurveto
          93 74 50 72 42 hvcurveto
          -59 22 59 -37 79 -59 callgsubr
          64 hlineto
          123 callsubr
          endchar
        </CharString>
        <CharString name="dvC_R">
          -137 26 686 rmoveto
          638 -100 callsubr
          -638 hlineto
          33 -260 rmoveto
          268 callsubr
          92 -72 120 hhcurveto
          13 13 1 1 12 hvcurveto
          -187 -152 rlineto
          71 hlineto
          239 199 65 44 45 69 12 79 rlinecurve
          -55 hlineto
          -17 -102 -90 -84 -106 -1 rrcurveto
          -91 197 callgsubr
          endchar
        </CharString>
        <CharString name="dvC_RA">
          125 26 686 rmoveto
          584 hlineto
          384 callsubr
          0 vlineto
          -13 -68 -44 -60 -61 -31 rrcurveto
          -1 hlineto
          -4 -3 rlineto
          -14 -28 -30 -8 -32 hhcurveto
          -91 358 callsubr
          17 79 83 callgsubr
          -126 -21 84 -75 116 hhcurveto
          9 8 0 1 9 hvcurveto
          -189 -153 rlineto
          71 hlineto
          238 196 28 19 24 23 19 27 rlinecurve
          -39 -219 -8 callsubr
          -788 hlineto
          endchar
        </CharString>
        <CharString name="dvC_YA">
          611 801 164 callsubr
          498 512 175 callgsubr
          -1273 -97 callgsubr
          790 4 callsubr
          rrcurveto
          -1 -5 -1 -4 -5 vvcurveto
          -32 -133 -70 -95 -122 -1 rrcurveto
          -90 -69 56 102 18 hvcurveto
          101 callgsubr
          -131 -23 96 -72 116 hhcurveto
          113 81 64 99 49 hvcurveto
          -92 25 79 -56 115 37 callgsubr
          endchar
        </CharString>
        <CharString name="dvCandrabindu">
          -605 -60 820 rmoveto
          131 71 354 callsubr
          -97 -33 365 callgsubr
          -15 58 -81 127 hhcurveto
          23 316 callgsubr
          -18 -16 -20 -4 hvcurveto
          -20 -3 12 -16 21 hhcurveto
          endchar
        </CharString>
        <CharString name="dvD">
          3 362 callgsubr
          -64 hlineto
          -356 783 12 callgsubr
          endchar
        </CharString>
        <CharString name="dvDA">
          5 27 686 12 callgsubr
          endchar
        </CharString>
        <CharString name="dvDA_mvR">
          -23 244 12 rmoveto
          139 115 71 142 25 hvcurveto
          -55 hlineto
          -110 -19 -92 -54 -101 hhcurveto
          -94 -59 43 75 14 hvcurveto
          72 14 70 34 69 hhcurveto
          62 hlineto
          9 49 rlineto
          -59 hlineto
          -82 -50 36 60 11 hvcurveto
          69 12 67 25 73 hhcurveto
          178 hlineto
          29 162 rlineto
          148 -64 callgsubr
          -642 153 callgsubr
          433 hlineto
          -20 -115 rlineto
          -142 hlineto
          -95 -86 -35 -98 -18 hvcurveto
          -14 -79 62 -43 55 -6 rrcurveto
          -3 vlineto
          -49 -4 -83 -35 -18 -94 rrcurveto
          -103 -19 87 -59 125 hhcurveto
          endchar
        </CharString>
        <CharString name="dvDD">
          -27 289 -291 246 callsubr
          -176 784 -15 callgsubr
          endchar
        </CharString>
        <CharString name="dvDDA">
          -27 28 686 -15 callgsubr
          endchar
        </CharString>
        <CharString name="dvDDH">
          31 327 -266 246 callsubr
          -217 759 rmoveto
          445 118 callgsubr
          16 callgsubr
        </CharString>
        <CharString name="dvDDHA">
          34 callsubr
          endchar
        </CharString>
        <CharString name="dvDDH_DDHA">
          66 26 686 rmoveto
          451 hlineto
          -19 -109 rlineto
          -73 353 callgsubr
          48 -74 91 -33 -99 -30 -77 -71 -20 -110 rrcurveto
          -149 -26 104 -85 166 hhcurveto
          151 98 66 96 16 hvcurveto
          79 14 -48 63 -103 hhcurveto
          -90 -70 287 callsubr
          50 7 49 33 62 hhcurveto
          71 31 -42 -56 -10 hvcurveto
          -68 -11 -82 -48 -108 hhcurveto
          -142 -74 70 117 21 hvcurveto
          127 23 117 66 123 hhcurveto
          0 2 vlineto
          143 99 65 96 18 hvcurveto
          80 15 -48 62 -103 hhcurveto
          -91 -70 -44 -76 -12 hvcurveto
          -1 -8 -1 -11 -8 vvcurveto
          45 hlineto
          5 1 8 6 vvcurveto
          50 7 52 33 62 hhcurveto
          69 30 -41 -54 -9 hvcurveto
          -71 -11 -83 -48 -107 hhcurveto
          -141 -75 71 117 21 hvcurveto
          126 23 110 64 122 hhcurveto
          112 hlineto
          26 152 rlineto
          222 -100 callsubr
          -729 hlineto
          endchar
        </CharString>
        <CharString name="dvDDH_R">
          31 318 -345 180 callgsubr
          -207 838 288 callsubr
          -24 -138 73 -101 123 -29 -186 -164 rcurveline
          71 callsubr
          -123 157 119 15 85 74 19 101 rlinecurve
          16 callgsubr
        </CharString>
        <CharString name="dvDDH_RA">
          268 callgsubr
          -24 -138 73 -101 123 -29 -186 -164 rcurveline
          71 callsubr
          -123 157 119 15 85 74 19 101 rlinecurve
          16 callgsubr
        </CharString>
        <CharString name="dvDDH_VA">
          32 26 686 rmoveto
          444 hlineto
          -20 -109 rlineto
          -65 353 callgsubr
          49 -76 86 -31 -75 -21 -63 -59 -16 -88 rrcurveto
          -106 -19 67 -69 105 hhcurveto
          77 59 38 53 35 hvcurveto
          274 callgsubr
          54 hlineto
          75 424 58 29 37 47 11 58 rlinecurve
          77 14 -45 62 -95 hhcurveto
          -87 -69 287 callsubr
          51 7 48 32 60 hhcurveto
          60 30 -40 -55 -10 hvcurveto
          -70 -12 -72 -49 -103 hhcurveto
          -141 -74 71 117 21 hvcurveto
          128 23 111 62 121 hhcurveto
          104 hlineto
          27 152 rlineto
          195 -100 callsubr
          -695 hlineto
          182 -900 rmoveto
          -76 -53 49 81 16 hvcurveto
          88 17 75 54 128 hhcurveto
          31 29 3 6 26 hvcurveto
          -26 -146 rlineto
          -65 -18 -56 -70 -93 hhcurveto
          endchar
        </CharString>
        <CharString name="dvDDH_YA">
          650 1017 hmoveto
          62 -86 callsubr
          -1315 -97 callgsubr
          445 118 callgsubr
          -80 callgsubr
          316 hlineto
          64 86 -11 -80 -13 hvcurveto
          -73 -13 -67 -18 -81 hhcurveto
          -23 hlineto
          -2 -10 -3 -11 -2 -11 rrcurveto
          -139 -24 64 -87 133 hhcurveto
          95 67 47 71 43 hvcurveto
          -188 -68 rmoveto
          -105 -45 70 95 19 hvcurveto
          1 3 0 4 1 4 99 2 77 32 16 91 rrcurveto
          103 17 -89 31 -109 hhcurveto
          -236 hlineto
          21 125 rlineto
          607 330 callgsubr
          0 vlineto
          -128 -23 -76 -90 -115 hhcurveto
          endchar
        </CharString>
        <CharString name="dvDDHxA">
          34 callsubr
          214 -905 rmoveto
          -105 callsubr
          endchar
        </CharString>
        <CharString name="dvDD_DDA">
          -12 26 686 rmoveto
          429 309 callsubr
          -121 hlineto
          -91 -86 -25 -92 -17 hvcurveto
          -93 -16 83 -30 110 hhcurveto
          86 71 -13 -82 -14 hvcurveto
          -58 -10 -53 -36 -87 hhcurveto
          -120 -48 55 66 10 hvcurveto
          -61 hlineto
          -11 -67 38 -50 61 -22 -59 -13 -45 -32 -10 -57 rrcurveto
          -96 -17 80 -24 114 hhcurveto
          90 67 -14 -82 -15 hvcurveto
          -58 -10 -55 -35 -87 hhcurveto
          -111 -55 48 72 11 hvcurveto
          -61 hlineto
          -104 -17 89 -61 139 hhcurveto
          127 76 52 87 15 hvcurveto
          110 21 -83 28 -126 hhcurveto
          -82 -63 10 68 13 hvcurveto
          53 10 54 21 108 hhcurveto
          132 76 53 86 16 hvcurveto
          107 20 -83 31 -126 hhcurveto
          -77 -66 15 64 14 hvcurveto
          58 12 56 15 63 hhcurveto
          172 hlineto
          4 24 rlineto
          1 hlineto
          23 132 rlineto
          162 -100 callsubr
          -651 hlineto
          endchar
        </CharString>
        <CharString name="dvDD_DDHA">
          -1 60 686 rmoveto
          414 309 callsubr
          -121 hlineto
          -90 -86 -30 -93 -17 hvcurveto
          -94 -16 82 -23 110 hhcurveto
          86 73 -13 -82 -16 hvcurveto
          -58 -9 -54 -36 -87 hhcurveto
          -120 -47 55 66 10 hvcurveto
          -61 hlineto
          -13 -72 45 -53 69 -19 -97 -27 -76 -70 -20 -114 rrcurveto
          -145 -26 106 -79 150 hhcurveto
          139 91 66 95 16 hvcurveto
          81 15 -47 61 -98 hhcurveto
          -84 -65 -44 -75 -14 hvcurveto
          -1 -8 -1 -11 -9 vvcurveto
          46 hlineto
          -1 6 1 8 1 7 rrcurveto
          48 8 44 34 59 hhcurveto
          64 30 -42 -56 -10 hvcurveto
          -69 -12 -76 -47 -98 hhcurveto
          -130 -72 69 108 21 hvcurveto
          22 124 108 64 121 3 128 5 70 49 16 85 rrcurveto
          107 20 -82 31 -125 hhcurveto
          -78 -65 8 64 12 hvcurveto
          63 12 68 17 55 hhcurveto
          169 hlineto
          8 45 2 callgsubr
          19 111 rlineto
          148 -100 callsubr
          -622 hlineto
          endchar
        </CharString>
        <CharString name="dvDD_R">
          -27 266 -370 rmoveto
          65 hlineto
          -87 193 rlineto
          -64 hlineto
          -152 863 32 callgsubr
        </CharString>
        <CharString name="dvDD_RA">
          -27 28 686 32 callgsubr
        </CharString>
        <CharString name="dvDD_VA">
          0 365 -282 rmoveto
          74 421 32 23 20 33 7 41 rlinecurve
          18 107 -80 31 -117 2 rrcurveto
          -82 -69 8 66 13 hvcurveto
          67 12 68 13 55 hhcurveto
          169 hlineto
          4 24 295 callsubr
          132 rlineto
          177 -100 callsubr
          -663 -97 callgsubr
          426 309 callsubr
          -121 hlineto
          -91 -86 -29 -90 -16 hvcurveto
          -102 -17 92 -21 97 hhcurveto
          90 71 -14 -83 -14 hvcurveto
          -59 -11 -53 -35 -86 hhcurveto
          -120 -49 54 65 11 hvcurveto
          -62 hlineto
          -12 -70 43 -55 69 -22 -71 -20 -60 -55 -15 -82 rrcurveto
          -104 -18 65 -66 102 hhcurveto
          69 58 27 49 38 hvcurveto
          -26 -145 rlineto
          -119 116 rmoveto
          -75 -52 47 80 15 hvcurveto
          91 16 86 44 99 hhcurveto
          38 33 5 9 29 hvcurveto
          -27 -148 2 callgsubr
          -57 -10 -56 -71 -96 hhcurveto
          endchar
        </CharString>
        <CharString name="dvDD_YA">
          560 927 hmoveto
          63 -2 callsubr
          -1223 153 callgsubr
          426 -42 callsubr
          141 callsubr
          325 hlineto
          63 83 -11 -78 -14 hvcurveto
          -65 -12 -66 -18 -80 hhcurveto
          -25 hlineto
          -3 -11 -2 -10 -2 -11 rrcurveto
          -139 -24 65 -87 132 hhcurveto
          96 66 47 71 43 hvcurveto
          -187 -68 rmoveto
          -105 -45 70 95 18 hvcurveto
          1 3 0 4 1 4 103 2 73 34 15 81 rrcurveto
          102 18 -87 31 -109 hhcurveto
          -165 hlineto
          24 134 rlineto
          532 330 callgsubr
          -1 hlineto
          -128 -22 -77 -90 -114 hhcurveto
          endchar
        </CharString>
        <CharString name="dvDDxA">
          -27 28 686 -15 callgsubr
          177 -931 rmoveto
          -105 callsubr
          endchar
        </CharString>
        <CharString name="dvDH">
          -169 272 103 rmoveto
          173 114 94 135 24 hvcurveto
          -56 hlineto
          -103 -18 -95 -72 -130 -74 callgsubr
          endchar
        </CharString>
        <CharString name="dvDHA">
          103 259 103 rmoveto
          107 92 51 81 52 212 callgsubr
          -50 callgsubr
          11 54 51 66 hhcurveto
          76 32 -53 -80 -22 hvcurveto
          50 hlineto
          113 33 -54 74 -109 hhcurveto
          -101 -75 -66 -94 -16 hvcurveto
          252 callsubr
        </CharString>
        <CharString name="dvDH_MA">
          646 670 166 rmoveto
          -65 -43 373 callgsubr
          -48 callgsubr
          -16 -50 -53 -71 hhcurveto
          -398 -63 rmoveto
          108 85 40 66 51 hvcurveto
          -60 16 53 -38 78 89 callsubr
          198 hlineto
          -70 -398 192 callsubr
          -742 153 callgsubr
          279 149 callsubr
          -102 -87 -57 -100 -22 hvcurveto
          -85 -36 -86 -52 -112 -74 callgsubr
          818 348 rmoveto
          368 callsubr
          197 hlineto
          endchar
        </CharString>
        <CharString name="dvDH_NA">
          649 272 103 rmoveto
          119 94 50 80 50 hvcurveto
          -63 21 59 -40 82 hhcurveto
          107 94 71 110 19 hvcurveto
          11 64 -19 38 callsubr
          64 hlineto
          123 callsubr
          139 -100 callsubr
          -745 153 callgsubr
          541 159 callsubr
          -335 hlineto
          -118 -93 -65 -110 -24 hvcurveto
          0 vlineto
          -105 -21 -100 -69 -128 -74 callgsubr
          433 82 rmoveto
          -83 -47 54 78 14 hvcurveto
          80 14 332 callsubr
          -80 hhcurveto
          endchar
        </CharString>
        <CharString name="dvDH_N_YA">
          1106 272 103 rmoveto
          108 87 42 69 53 hvcurveto
          -74 14 63 -49 90 hhcurveto
          109 90 71 110 21 346 callsubr
          -32 29 rrcurveto
          189 hlineto
          -172 -27 90 -123 161 hhcurveto
          110 78 51 62 43 hvcurveto
          -41 -232 30 callsubr
          -1201 153 callgsubr
          718 225 callsubr
          -326 hlineto
          -114 -90 -60 -104 -28 hvcurveto
          -86 -29 -94 -60 -118 -74 callgsubr
          423 43 61 callsubr
          -76 -14 -66 -58 -80 hhcurveto
          601 28 rmoveto
          -136 -67 108 135 25 hvcurveto
          132 4 88 55 22 125 15 85 113 callsubr
          endchar
        </CharString>
        <CharString name="dvDH_R">
          -177 272 103 rmoveto
          27 25 2 5 24 hvcurveto
          -214 -172 rlineto
          73 hlineto
          266 221 59 41 38 60 13 72 rlinecurve
          -56 hlineto
          -103 -18 -95 -72 -130 -74 callgsubr
          endchar
        </CharString>
        <CharString name="dvDH_RA">
          103 259 105 rmoveto
          17 17 1 3 16 hvcurveto
          -212 -171 rlineto
          73 hlineto
          279 230 2 callgsubr
          24 19 21 23 17 26 -42 -236 rcurveline
          -50 callgsubr
          12 53 51 66 hhcurveto
          76 32 -53 -80 -22 hvcurveto
          50 hlineto
          113 33 -54 74 -109 hhcurveto
          -101 37 callsubr
          -45 -17 -90 rrcurveto
          -111 -20 88 -62 385 callsubr
        </CharString>
        <CharString name="dvDH_VA">
          537 272 103 -40 callsubr
          -100 37 callsubr
          -44 -17 -91 rrcurveto
          -117 -20 90 -58 127 hhcurveto
          475 53 rmoveto
          -103 -93 callgsubr
          -130 hhcurveto
          endchar
        </CharString>
        <CharString name="dvDH_YA">
          581 272 103 -44 callgsubr
          -100 37 callsubr
          -44 -17 -89 rrcurveto
          -115 -20 97 -62 120 hhcurveto
          500 71 91 callsubr
          endchar
        </CharString>
        <CharString name="dvD_BA">
          224 callgsubr
          -25 -55 -57 -13 -78 rrcurveto
          -113 -20 73 -75 104 hhcurveto
          75 66 36 62 39 hvcurveto
          -28 -158 rlineto
          56 hlineto
          100 567 rlineto
          -55 hlineto
          -93 -16 -95 -40 -68 hhcurveto
          -82 -57 62 82 16 hvcurveto
          88 17 80 47 113 hhcurveto
          149 hlineto
          29 163 callgsubr
          75 5 61 231 callsubr
        </CharString>
        <CharString name="dvD_BHA">
          746 477 -290 246 callsubr
          -365 783 12 callgsubr
          755 -574 -52 callsubr
          174 hlineto
          -70 -398 rlineto
          64 hlineto
          121 686 rlineto
          141 hlineto
          9 54 rlineto
          -205 hlineto
          -51 -289 rlineto
          -174 -62 callsubr
        </CharString>
        <CharString name="dvD_B_RA">
          224 callgsubr
          -24 -55 -58 -13 -78 rrcurveto
          -113 -20 73 -75 104 4 4 0 4 hhcurveto
          -158 -125 rlineto
          70 hlineto
          215 175 rlineto
          -1 hlineto
          16 14 14 16 12 18 -28 -158 rcurveline
          56 hlineto
          100 567 rlineto
          -55 hlineto
          -93 -17 -95 -40 -67 hhcurveto
          -82 -57 62 82 16 hvcurveto
          88 17 79 47 114 hhcurveto
          148 hlineto
          30 163 callgsubr
          74 5 62 231 callsubr
        </CharString>
        <CharString name="dvD_DA">
          -65 348 -47 rmoveto
          62 hlineto
          49 276 rlineto
          -55 hlineto
          -104 -18 -77 -57 -97 hhcurveto
          -87 -48 42 77 13 hvcurveto
          58 10 53 48 87 hhcurveto
          92 hlineto
          7 48 rlineto
          -92 hlineto
          -85 -43 42 57 11 hvcurveto
          74 12 75 28 88 hhcurveto
          142 hlineto
          26 144 rlineto
          154 -100 callsubr
          -610 -97 callgsubr
          393 hlineto
          -18 -99 rlineto
          1 -31 -32 0 -30 hhcurveto
          -114 -98 -35 -106 -20 hvcurveto
          -13 -73 52 -47 59 -10 -1 -2 rcurveline
          -70 -10 -59 -53 -12 -73 rrcurveto
          -100 -18 70 -60 108 hhcurveto
          96 65 46 48 32 hvcurveto
          endchar
        </CharString>
        <CharString name="dvD_DHA">
          293 30 686 rmoveto
          737 hlineto
          -21 -118 rlineto
          -82 hlineto
          -147 -130 -70 -159 -29 hvcurveto
          -16 -94 30 -70 58 -37 rrcurveto
          -100 -38 -81 -57 -89 hhcurveto
          -77 -60 40 84 17 hvcurveto
          64 12 54 57 95 hhcurveto
          7 331 callsubr
          -7 hlineto
          -95 -43 49 68 13 hvcurveto
          11 64 61 54 100 -6 10 53 rcurveline
          -148 11 -80 -78 -15 -88 -16 -94 59 -46 58 -12 rrcurveto
          -3 vlineto
          -67 -10 -68 -52 -16 -86 rrcurveto
          -115 -21 84 -59 108 hhcurveto
          119 103 72 119 44 hvcurveto
          -7 21 23 -3 25 hhcurveto
          76 248 callsubr
          -36 -206 rlineto
          62 hlineto
          56 319 rlineto
          -58 hlineto
          -105 -19 -93 -43 -70 hhcurveto
          -103 -58 70 105 19 hvcurveto
          121 20 104 57 113 hhcurveto
          141 hlineto
          30 173 rlineto
          151 -100 callsubr
          -952 hlineto
          endchar
        </CharString>
        <CharString name="dvD_GA">
          25 33 686 rmoveto
          472 hlineto
          -21 372 callgsubr
          -146 -108 -61 -133 -24 hvcurveto
          -16 -96 46 -72 89 -18 -23 -132 rcurveline
          -52 -10 -28 -57 -72 hhcurveto
          -64 -16 54 48 8 hvcurveto
          5 29 rlineto
          -56 hlineto
          -6 -30 rlineto
          -84 -16 46 -68 94 hhcurveto
          105 53 73 87 15 hvcurveto
          23 128 69 3 61 33 35 44 rlinecurve
          -78 -443 rlineto
          59 hlineto
          97 547 rlineto
          -56 hlineto
          -90 -16 -96 -43 -64 hhcurveto
          -91 -48 54 82 14 hvcurveto
          93 16 82 50 113 hhcurveto
          147 hlineto
          30 172 rlineto
          153 -100 callsubr
          -689 hlineto
          endchar
        </CharString>
        <CharString name="dvD_GHA">
          293 224 -19 rmoveto
          -81 -57 40 85 16 hvcurveto
          63 11 53 57 97 hhcurveto
          7 331 callsubr
          -7 hlineto
          -95 -43 46 71 13 hvcurveto
          59 10 53 53 89 hhcurveto
          40 40 -10 -25 41 hvcurveto
          -30 -34 -22 -44 -10 -54 -16 -93 29 -71 59 -37 rrcurveto
          -100 -38 -81 -57 -87 hhcurveto
          -197 705 rmoveto
          740 hlineto
          -21 -118 rlineto
          -82 hlineto
          -75 -72 -19 -40 -56 hvcurveto
          32 -46 -56 20 -60 hhcurveto
          -129 -71 -74 -84 -14 hvcurveto
          -16 -92 56 -45 62 -14 -1 -3 rcurveline
          -63 -7 -71 -51 -16 -89 rrcurveto
          -115 -20 83 -60 108 hhcurveto
          121 102 72 119 43 hvcurveto
          -7 21 22 -3 25 hhcurveto
          77 68 34 53 36 hvcurveto
          -36 -206 rlineto
          63 hlineto
          56 319 rlineto
          -59 hlineto
          -105 -18 -93 -43 -70 hhcurveto
          -103 -58 70 105 19 hvcurveto
          121 20 104 57 113 hhcurveto
          140 hlineto
          31 173 rlineto
          151 -100 callsubr
          -955 hlineto
          endchar
        </CharString>
        <CharString name="dvD_G_RA">
          25 26 686 rmoveto
          473 hlineto
          -22 372 callgsubr
          -145 -109 -61 -135 -23 hvcurveto
          -16 -93 45 -72 89 -18 -11 -69 rcurveline
          -52 -9 -29 -55 -74 hhcurveto
          -63 -18 51 50 10 hvcurveto
          6 29 rlineto
          -56 hlineto
          -2 -10 -2 -10 -1 -10 rrcurveto
          -85 -8 30 -66 97 hhcurveto
          105 57 70 90 15 hvcurveto
          11 62 67 3 62 33 36 44 rlinecurve
          -34 -193 -355 -302 rlineto
          68 hlineto
          280 242 -34 -190 rlineto
          57 hlineto
          96 547 rlineto
          -55 hlineto
          -89 -17 -94 -44 -67 hhcurveto
          -90 -49 55 81 15 hvcurveto
          93 17 79 50 114 hhcurveto
          148 hlineto
          32 172 rlineto
          152 -64 callgsubr
          -688 hlineto
          endchar
        </CharString>
        <CharString name="dvD_MA">
          199 208 -102 rmoveto
          -54 -38 39 57 11 hvcurveto
          62 12 56 39 64 hhcurveto
          85 hlineto
          -13 -71 rlineto
          -79 -15 -46 -47 -62 hhcurveto
          204 251 rmoveto
          29 161 rlineto
          -171 hlineto
          -75 -51 33 73 14 hvcurveto
          65 12 62 32 74 hhcurveto
          157 hlineto
          30 173 rlineto
          201 hlineto
          -95 -537 rlineto
          -561 537 rmoveto
          392 hlineto
          -20 -118 rlineto
          -102 hlineto
          -106 -88 -41 -107 -19 hvcurveto
          -108 -20 79 -55 100 hhcurveto
          118 hlineto
          -18 -108 rlineto
          -82 hlineto
          -96 -88 -51 -101 -18 hvcurveto
          -92 -16 63 -60 89 hhcurveto
          95 69 66 117 21 hvcurveto
          12 67 rlineto
          187 hlineto
          -55 -313 rlineto
          63 hlineto
          159 904 rlineto
          143 -64 callgsubr
          -862 hlineto
          endchar
        </CharString>
        <CharString name="dvD_NA">
          765 475 -290 rmoveto
          67 hlineto
          -88 193 rlineto
          -64 hlineto
          431 282 -99 callsubr
          -360 -196 rmoveto
          327 callsubr
          -105 -18 -94 -43 -70 hhcurveto
          -103 -57 70 105 18 hvcurveto
          121 21 104 57 113 hhcurveto
          140 hlineto
          31 173 rlineto
          708 hlineto
          -32 -180 rlineto
          -336 hlineto
          -122 -94 -69 -117 -21 hvcurveto
          136 callgsubr
          64 hlineto
          123 callsubr
          141 hlineto
          9 54 rlineto
          -1427 -97 callgsubr
          58 callgsubr
          endchar
        </CharString>
        <CharString name="dvD_R">
          5 362 callgsubr
          -65 hlineto
          -355 783 40 callsubr
        </CharString>
        <CharString name="dvD_RA">
          5 27 686 40 callsubr
        </CharString>
        <CharString name="dvD_VA">
          -5 27 686 rmoveto
          442 hlineto
          -21 372 callgsubr
          -145 -109 -64 -128 -23 hvcurveto
          230 callsubr
          59 hlineto
          183 callsubr
          -658 hlineto
          186 -818 228 callgsubr
          endchar
        </CharString>
        <CharString name="dvD_YA">
          92 239 94 rmoveto
          -91 -65 40 75 12 hvcurveto
          73 12 68 32 85 hhcurveto
          64 hlineto
          10 50 rlineto
          -66 hlineto
          -80 -61 27 71 13 hvcurveto
          71 13 75 26 76 hhcurveto
          22 -2 hlineto
          2 2 rlineto
          60 hlineto
          22 127 rlineto
          168 hlineto
          -66 -377 rlineto
          -151 -37 -117 -64 -119 hhcurveto
          -191 592 rmoveto
          301 hlineto
          -18 -98 rlineto
          1 -19 -19 0 -20 hhcurveto
          -83 -96 -30 -95 -19 hvcurveto
          -16 -82 65 -37 53 -6 rrcurveto
          -3 vlineto
          -46 -4 -86 -33 -15 -95 rrcurveto
          -104 -17 93 -56 112 hhcurveto
          119 98 48 97 56 hvcurveto
          -33 -189 rlineto
          208 callgsubr
          -734 hlineto
          endchar
        </CharString>
        <CharString name="dvE">
          46 25 686 rmoveto
          244 callgsubr
          30 callgsubr
          -710 hlineto
          endchar
        </CharString>
        <CharString name="dvEcandra">
          47 387 842 rmoveto
          135 74 84 84 14 hvcurveto
          -55 hlineto
          -56 -10 -53 -62 -96 hhcurveto
          -98 -30 62 56 10 hvcurveto
          -55 hlineto
          -84 -15 44 -84 135 hhcurveto
          -386 -156 rmoveto
          244 callgsubr
          30 callgsubr
          -710 hlineto
          endchar
        </CharString>
        <CharString name="dvEight">
          29 callsubr
        </CharString>
        <CharString name="dvEyelash">
          -327 338 398 rmoveto
          -15 40 rlineto
          -5 -19 -21 -6 -35 hhcurveto
          -85 -88 35 108 18 hvcurveto
          -61 hlineto
          -143 -24 113 -48 109 hhcurveto
          42 42 8 11 24 hvcurveto
          -345 288 rmoveto
          375 -64 callgsubr
          -374 hlineto
          endchar
        </CharString>
        <CharString name="dvEyelash_HA">
          155 643 58 -78 callgsubr
          -809 -97 callgsubr
          603 257 callgsubr
          -6 -34 8 -28 14 -20 rrcurveto
          -4 -17 -18 -3 -21 hhcurveto
          -73 -70 35 102 18 hvcurveto
          -60 hlineto
          -135 -23 96 -54 96 hhcurveto
          51 35 12 11 25 hvcurveto
          4 -2 4 -2 4 -2 54 callsubr
        </CharString>
        <CharString name="dvEyelash_YA">
          306 492 174 rmoveto
          -127 -71 85 137 25 -83 callgsubr
          216 hlineto
          -56 -317 rlineto
          1 vlineto
          -118 -20 -102 -78 -122 hhcurveto
          243 254 callsubr
          -970 -97 callgsubr
          487 194 callgsubr
          -24 -80 -38 -112 hhcurveto
          -86 1 -84 35 18 105 rrcurveto
          -60 hlineto
          -23 -135 101 -51 106 -5 rrcurveto
          -167 -27 89 -109 158 hhcurveto
          114 79 53 64 44 hvcurveto
          -42 -236 rlineto
          endchar
        </CharString>
        <CharString name="dvFive">
          87 callgsubr
        </CharString>
        <CharString name="dvFour">
          151 callsubr
        </CharString>
        <CharString name="dvG">
          -122 26 686 rmoveto
          -104 callsubr
          131 -100 callsubr
          -520 hlineto
          endchar
        </CharString>
        <CharString name="dvGA">
          122 487 hmoveto
          -51 callsubr
          -785 -101 callgsubr
          192 hlineto
          endchar
        </CharString>
        <CharString name="dvGH">
          -164 26 686 rmoveto
          136 callsubr
          160 125 109 143 26 hvcurveto
          -54 hlineto
          -116 -21 -104 -83 -123 hhcurveto
          137 callgsubr
          424 -100 callsubr
          -622 hlineto
          endchar
        </CharString>
        <CharString name="dvGHA">
          109 289 156 callsubr
          -263 524 rmoveto
          135 172 callgsubr
          88 -63 127 hhcurveto
          103 91 48 78 54 hvcurveto
          -42 -235 rlineto
          65 116 callgsubr
          -772 hlineto
          endchar
        </CharString>
        <CharString name="dvGH_MA">
          618 1061 451 49 callsubr
          -461 -520 -98 callgsubr
          -353 -4 rmoveto
          -98 -69 43 92 17 167 callsubr
          -35 46 84 15 hvcurveto
          14 82 rlineto
          621 149 callsubr
          -93 -80 -47 -84 -31 hvcurveto
          -2 -5 rlineto
          -82 -33 -69 -71 -104 hhcurveto
          1018 524 175 callgsubr
          -1281 204 callgsubr
          97 73 46 60 43 hvcurveto
          -64 13 55 -40 80 20 callgsubr
          endchar
        </CharString>
        <CharString name="dvGH_NA">
          616 673 185 -99 callsubr
          -384 -23 rmoveto
          -98 -70 43 92 18 167 callsubr
          -35 46 84 15 hvcurveto
          14 82 rlineto
          879 210 callsubr
          -109 -86 -55 -95 -33 hvcurveto
          -4 -11 rlineto
          -106 -38 -69 -77 -107 hhcurveto
          1018 524 rmoveto
          -20 callsubr
          -1280 204 callgsubr
          104 76 55 82 45 hvcurveto
          -70 17 62 -46 88 -59 callgsubr
          64 hlineto
          123 callsubr
          endchar
        </CharString>
        <CharString name="dvGH_R">
          -164 26 686 rmoveto
          136 callsubr
          19 19 2 3 18 hvcurveto
          -209 -169 rlineto
          72 hlineto
          261 217 68 46 48 71 15 82 rlinecurve
          -54 hlineto
          -116 -21 -104 -83 -123 hhcurveto
          137 callgsubr
          424 -100 callsubr
          -622 hlineto
          endchar
        </CharString>
        <CharString name="dvGH_RA">
          109 289 162 rmoveto
          -99 -68 43 92 17 hvcurveto
          69 13 59 55 117 hhcurveto
          48 hlineto
          9 53 rlineto
          -45 hlineto
          -110 -34 46 84 14 hvcurveto
          15 82 rlineto
          369 hlineto
          -59 -334 rlineto
          -113 -26 -109 -77 -111 hhcurveto
          -263 524 rmoveto
          135 172 callgsubr
          89 -63 126 hhcurveto
          16 16 1 3 15 hvcurveto
          -208 -168 rlineto
          73 hlineto
          264 218 28 20 24 24 20 28 rlinecurve
          -42 -235 rlineto
          65 116 callgsubr
          -772 hlineto
          endchar
        </CharString>
        <CharString name="dvGH_YA">
          591 289 162 rmoveto
          137 callgsubr
          572 4 callsubr
          -1 -5 -1 -6 -1 -5 rrcurveto
          -130 -23 -103 -93 -123 hhcurveto
          492 12 rmoveto
          -103 callgsubr
          498 512 175 callgsubr
          -1253 -97 callgsubr
          136 callsubr
          114 96 60 92 55 hvcurveto
          -89 27 78 -53 113 37 callgsubr
          endchar
        </CharString>
        <CharString name="dvG_BA">
          514 880 hmoveto
          42 callgsubr
          -1176 -101 callgsubr
          585 148 callsubr
          -136 -117 -90 -147 -26 hvcurveto
          255 callsubr
          -201 -70 51 callgsubr
        </CharString>
        <CharString name="dvG_BHA">
          596 642 166 rmoveto
          95 callsubr
          -16 -88 rlineto
          -91 -15 -51 -53 -71 hhcurveto
          -9 -55 rmoveto
          112 72 -47 callsubr
          174 150 callsubr
          122 -82 callgsubr
          -206 346 callgsubr
          -174 hlineto
          16 91 rlineto
          123 22 -33 84 -116 369 callgsubr
          -660 -97 callgsubr
          326 hlineto
          -51 -284 rlineto
          -53 -9 -28 -55 -73 hhcurveto
          -68 -14 54 328 callgsubr
          -63 hlineto
          -6 -30 rlineto
          -91 -17 46 -71 102 hhcurveto
          109 54 76 90 16 hvcurveto
          49 282 rlineto
          290 hlineto
          4 13 13 3 14 hhcurveto
          72 20 295 callgsubr
          -18 -100 rlineto
          -102 hlineto
          -107 -89 -62 -108 -19 hvcurveto
          -101 -18 63 -69 101 hhcurveto
          endchar
        </CharString>
        <CharString name="dvG_BH_YA">
          1045 1236 174 rmoveto
          -134 -71 78 137 27 hvcurveto
          374 callgsubr
          vhcurveto
          128 3 88 60 24 109 callgsubr
          -594 -8 -52 callsubr
          141 hlineto
          -1 -4 rlineto
          -171 -31 88 -104 165 196 callsubr
          141 hlineto
          9 54 rlineto
          -700 153 callgsubr
          216 160 callgsubr
          -126 -21 -83 -34 -98 hhcurveto
          -171 297 callsubr
          -654 -101 callgsubr
          193 187 callgsubr
          -102 hlineto
          -108 -88 -62 -108 -20 hvcurveto
          383 callsubr
          105 hhcurveto
          endchar
        </CharString>
        <CharString name="dvG_DA">
          433 890 169 callsubr
          -1096 -101 callgsubr
          493 28 callsubr
          78 248 callsubr
          -37 -206 rlineto
          endchar
        </CharString>
        <CharString name="dvG_DHA">
          526 682 103 rmoveto
          107 92 51 81 52 212 callgsubr
          -50 callgsubr
          11 54 51 66 hhcurveto
          76 32 -53 -80 -22 hvcurveto
          50 hlineto
          113 33 -54 74 -109 hhcurveto
          -22 -21 282 callsubr
          -641 -101 callgsubr
          177 hlineto
          -23 -26 -16 -33 -6 -38 252 callsubr
        </CharString>
        <CharString name="dvG_DH_VA">
          960 694 103 -44 callsubr
          -640 -101 callgsubr
          176 138 callgsubr
          -62 -8 -71 -44 -17 -91 rrcurveto
          -117 -20 90 -58 127 hhcurveto
          475 53 rmoveto
          -103 -93 callgsubr
          -130 hhcurveto
          endchar
        </CharString>
        <CharString name="dvG_DH_YA">
          1004 1195 174 91 callsubr
          -500 -71 -44 callgsubr
          -22 -20 282 callsubr
          -641 -101 callgsubr
          177 138 callgsubr
          -62 -8 -71 -44 -17 -89 rrcurveto
          -115 -20 97 -62 120 hhcurveto
          endchar
        </CharString>
        <CharString name="dvG_GA">
          558 923 hmoveto
          -51 callsubr
          -1221 -101 callgsubr
          373 hlineto
          -51 -284 rlineto
          -53 -9 -28 -55 -73 hhcurveto
          -68 -13 54 51 9 hvcurveto
          6 31 rlineto
          -63 hlineto
          -6 -30 rlineto
          -91 -16 45 -71 102 hhcurveto
          109 54 76 90 16 hvcurveto
          49 282 rlineto
          192 hlineto
          endchar
        </CharString>
        <CharString name="dvG_GHA">
          527 708 156 callsubr
          249 -162 73 callgsubr
          -1191 -101 callgsubr
          165 172 callgsubr
          88 -63 127 hhcurveto
          103 91 48 78 54 hvcurveto
          -42 -235 rlineto
          endchar
        </CharString>
        <CharString name="dvG_JA">
          653 1081 225 callgsubr
          -1315 -101 callgsubr
          723 221 callgsubr
          -273 -96 callsubr
          112 rcurveline
          324 callsubr
          endchar
        </CharString>
        <CharString name="dvG_LA">
          726 976 240 callsubr
          -1390 -101 callgsubr
          678 hlineto
          -25 -139 -99 -10 -56 -74 -27 -68 rlinecurve
          -2 hlineto
          71 -3 -37 82 -110 hhcurveto
          -123 -91 -85 -139 -24 hvcurveto
          -137 -25 65 -108 154 -75 callgsubr
          endchar
        </CharString>
        <CharString name="dvG_MA">
          610 1053 451 49 callsubr
          -461 -520 -98 callgsubr
          404 -166 -1 callgsubr
          -1273 -101 callgsubr
          422 -79 callgsubr
          197 189 callsubr
          endchar
        </CharString>
        <CharString name="dvG_NA">
          613 669 185 -99 callsubr
          372 -185 rmoveto
          -76 callgsubr
          -1276 -101 callgsubr
          684 hlineto
          -32 -180 rlineto
          -336 hlineto
          -122 -94 -69 -117 -21 hvcurveto
          136 callgsubr
          endchar
        </CharString>
        <CharString name="dvG_NNA">
          677 691 248 -47 callgsubr
          413 -248 rmoveto
          -76 callgsubr
          -1339 -101 callgsubr
          170 -26 callsubr
          211 hlineto
          -120 -686 rlineto
          endchar
        </CharString>
        <CharString name="dvG_N_YA">
          1074 665 9 callgsubr
          -1738 -101 callgsubr
          866 225 callsubr
          -325 hlineto
          -122 -95 -69 -117 -20 hvcurveto
          74 callgsubr
        </CharString>
        <CharString name="dvG_R">
          97 callsubr
          endchar
        </CharString>
        <CharString name="dvG_RA">
          76 callgsubr
          endchar
        </CharString>
        <CharString name="dvG_R_YA">
          560 750 164 callsubr
          -18 -55 rmoveto
          109 80 52 63 44 hvcurveto
          -41 -234 335 callgsubr
          -1222 -97 callgsubr
          34 callgsubr
          -16 41 -75 105 hhcurveto
          111 53 76 89 16 hvcurveto
          40 233 rlineto
          350 4 callsubr
          -7 -36 -1 -34 4 -30 -384 -321 rcurveline
          77 hlineto
          318 272 rlineto
          -83 30 76 -50 109 hhcurveto
          endchar
        </CharString>
        <CharString name="dvG_SA">
          631 885 588 -81 callgsubr
          -1294 -101 callgsubr
          425 hlineto
          -18 -98 rlineto
          -108 -20 -74 -69 -116 hhcurveto
          -98 hlineto
          -36 -202 -89 callsubr
          endchar
        </CharString>
        <CharString name="dvG_VA">
          500 711 156 -75 callsubr
          -1163 -101 callgsubr
          572 5 callgsubr
          -130 -110 311 callgsubr
          -149 -27 86 -91 133 -69 callsubr
          endchar
        </CharString>
        <CharString name="dvG_YA">
          559 749 164 callsubr
          238 -174 73 callgsubr
          -1221 -101 callgsubr
          349 4 callsubr
          rrcurveto
          131 callgsubr
        </CharString>
        <CharString name="dvGx">
          -122 26 686 rmoveto
          -104 callsubr
          131 -100 callsubr
          -520 hlineto
          121 -685 rmoveto
          -105 callsubr
          endchar
        </CharString>
        <CharString name="dvGxA">
          122 487 hmoveto
          -51 callsubr
          -785 -101 callgsubr
          192 hlineto
          -450 -631 rmoveto
          -105 callsubr
          endchar
        </CharString>
        <CharString name="dvGx_R">
          97 callsubr
          8 -670 -25 callsubr
          endchar
        </CharString>
        <CharString name="dvGx_RA">
          76 callgsubr
          -491 -196 -25 callsubr
          endchar
        </CharString>
        <CharString name="dvH">
          -19 269 -380 180 callgsubr
          296 245 -78 callgsubr
          -645 153 callgsubr
          438 257 callgsubr
          -11 -65 36 -40 42 -19 54 callsubr
        </CharString>
        <CharString name="dvHA">
          -10 479 58 -78 callgsubr
          -645 153 callgsubr
          438 257 callgsubr
          -11 -65 36 -40 42 -19 54 callsubr
        </CharString>
        <CharString name="dvHA_mU">
          -19 244 -360 rmoveto
          124 88 57 98 16 hvcurveto
          100 16 -62 59 -133 hhcurveto
          -129 -58 73 91 17 hvcurveto
          84 16 70 78 106 hhcurveto
          114 31 -80 -70 -12 hvcurveto
          61 hlineto
          96 16 -46 106 -154 hhcurveto
          -21 -19 -2 -3 -19 hvcurveto
          -44 14 -30 31 9 48 rrcurveto
          62 12 60 195 callgsubr
          -77 -39 -87 -16 hvcurveto
          -11 -60 34 -42 44 -20 -77 -33 -53 -67 -14 -88 rrcurveto
          -117 -20 70 -101 171 hhcurveto
          102 43 -38 -68 -12 hvcurveto
          -67 -11 -74 -38 -82 hhcurveto
          -100 -73 46 102 23 hvcurveto
          -57 hlineto
          -128 -28 98 -71 132 hhcurveto
          endchar
        </CharString>
        <CharString name="dvHA_mUU">
          -19 219 -351 rmoveto
          8 48 rlineto
          -1 -13 -12 -1 -11 hhcurveto
          -61 -40 38 62 11 hvcurveto
          61 12 58 47 82 hhcurveto
          103 64 -79 -135 -23 hvcurveto
          -6 -35 rlineto
          54 hlineto
          1 9 2 9 2 9 rrcurveto
          162 29 -68 111 -150 hhcurveto
          -109 1 -45 72 16 91 rrcurveto
          83 16 72 79 106 hhcurveto
          110 34 -80 -71 -13 hvcurveto
          60 hlineto
          96 18 -47 107 -151 hhcurveto
          -21 -21 -2 -4 -19 hvcurveto
          -45 14 -30 31 9 49 rrcurveto
          62 11 61 195 callgsubr
          -76 -39 -84 -16 hvcurveto
          -11 -64 34 -42 43 -20 -77 -34 -53 -68 -14 -84 -15 -83 30 -72 72 -35 -52 -25 -37 -44 -11 -59 rrcurveto
          -93 -18 59 -64 89 hhcurveto
          14 12 1 2 14 hvcurveto
          endchar
        </CharString>
        <CharString name="dvHA_mvR">
          60 304 -191 rmoveto
          8 47 rlineto
          -159 -79 102 137 25 hvcurveto
          112 20 86 109 167 hhcurveto
          107 50 -39 -67 10 hvcurveto
          2 -24 -29 1 -42 hhcurveto
          -96 -56 -49 -65 -12 hvcurveto
          -85 -16 64 -42 71 hhcurveto
          38 26 4 7 21 hvcurveto
          7 41 rlineto
          -7 -23 -27 -4 -26 hhcurveto
          -53 -44 28 59 11 hvcurveto
          39 7 40 37 65 hhcurveto
          142 hlineto
          104 6 -67 81 -144 hhcurveto
          -49 -44 -7 -13 -38 hvcurveto
          -40 15 -24 28 7 44 rrcurveto
          60 11 57 21 59 hhcurveto
          299 hlineto
          6 34 2 callgsubr
          25 143 rlineto
          120 -100 callsubr
          -724 -97 callgsubr
          548 hlineto
          -22 -131 rlineto
          -261 hlineto
          -90 -72 -36 -81 -15 hvcurveto
          -11 -60 35 -39 44 -20 -85 -46 -50 -80 -17 -93 -28 -161 92 -129 193 -1 rrcurveto
          endchar
        </CharString>
        <CharString name="dvH_LA">
          89 290 -186 rmoveto
          7 44 rlineto
          -149 -75 105 132 24 hvcurveto
          114 22 85 108 168 hhcurveto
          104 52 -49 -63 10 hvcurveto
          -47 -9 -28 -35 -12 -34 rrcurveto
          -2 hlineto
          39 -1 -23 42 -59 hhcurveto
          -66 -53 -47 -73 -14 hvcurveto
          -75 -14 41 -55 80 hhcurveto
          6 294 callgsubr
          7 36 rlineto
          -1 -5 -6 0 -8 hhcurveto
          -56 -25 39 54 10 hvcurveto
          44 8 34 41 47 hhcurveto
          46 21 -41 -61 -11 hvcurveto
          -1 -7 rlineto
          39 hlineto
          1 7 rlineto
          63 12 36 39 48 hhcurveto
          45 19 -39 -47 -8 hvcurveto
          -53 -9 -38 -39 -59 hhcurveto
          -5 -6 0 1 -5 hvcurveto
          -7 -36 rlineto
          -1 7 5 0 7 hhcurveto
          83 56 52 75 14 hvcurveto
          11 64 -29 49 -53 9 rrcurveto
          87 -8 -69 67 -129 hhcurveto
          -49 -43 -7 -13 -39 hvcurveto
          -39 15 -25 31 8 41 rrcurveto
          58 11 58 23 61 hhcurveto
          303 hlineto
          6 34 2 callgsubr
          26 143 -74 callsubr
          -752 -97 callgsubr
          556 hlineto
          -23 -131 rlineto
          -269 hlineto
          -89 -71 -36 -79 -15 hvcurveto
          -11 -57 32 -42 46 -22 -85 -46 -51 -80 -16 -93 -28 -158 92 -130 179 2 rrcurveto
          endchar
        </CharString>
        <CharString name="dvH_MA">
          632 184 420 rmoveto
          66 11 62 318 callsubr
          324 149 callsubr
          -88 -78 -43 -77 -33 hvcurveto
          -206 333 callgsubr
          472 -254 100 callsubr
          -880 -786 229 callsubr
          200 hlineto
          -98 -18 62 -69 105 20 callgsubr
          140 hlineto
          10 54 rlineto
          -1286 132 callgsubr
          -66 39 -39 41 -19 -79 -34 -53 -70 -15 -85 rrcurveto
          -119 -22 69 -99 146 hhcurveto
          endchar
        </CharString>
        <CharString name="dvH_NA">
          626 184 420 rmoveto
          66 12 61 318 callsubr
          576 210 callsubr
          -118 -92 -65 -110 -25 hvcurveto
          -198 333 callgsubr
          497 -235 -99 callsubr
          -444 -285 229 callsubr
          203 hlineto
          -88 4 67 -60 100 -59 callgsubr
          64 hlineto
          123 callsubr
          141 hlineto
          9 54 rlineto
          -1279 132 callgsubr
          -66 39 -39 41 -19 -79 -34 -53 -70 -15 -85 rrcurveto
          -119 -21 68 -99 146 hhcurveto
          endchar
        </CharString>
        <CharString name="dvH_NNA">
          56 317 27 rmoveto
          -45 -20 36 51 8 hvcurveto
          35 195 rlineto
          5 22 25 2 27 hhcurveto
          26 23 -2 -5 19 hvcurveto
          -33 -195 rlineto
          -48 -8 -30 -39 -49 hhcurveto
          -49 -167 rmoveto
          -126 5 -66 94 24 132 16 88 41 82 95 36 -32 -180 rcurveline
          -72 -13 35 -53 70 hhcurveto
          76 43 53 72 14 hvcurveto
          31 178 69 -35 13 -76 -16 -90 rlinecurve
          -24 -137 rlineto
          49 hlineto
          25 137 rlineto
          145 25 -54 122 -190 hhcurveto
          -48 -43 -7 -13 -37 hvcurveto
          -39 16 -23 28 7 43 rrcurveto
          58 11 59 23 59 hhcurveto
          281 hlineto
          6 34 2 callgsubr
          25 143 rlineto
          137 -64 callgsubr
          -724 -97 callgsubr
          533 hlineto
          -24 -131 rlineto
          -245 364 callsubr
          -10 -60 33 -38 43 -20 -84 -45 -49 -80 -17 -97 -27 -158 81 -120 159 -6 rrcurveto
          endchar
        </CharString>
        <CharString name="dvH_R">
          -19 264 -405 180 callgsubr
          296 242 27 callgsubr
        </CharString>
</ttFont>
